%
M48
M72
T01C0.02362
T02C0.03200
T03C0.03543
T04C0.04000
%
T01
X36800Y73186
X26800Y83186
X36800Y108186
X26800Y118186
X76800Y63186
X101800Y63186
X126800Y93186
X141800Y103186
X146800Y113186
X151800Y123186
X126800Y133186
X106800Y143186
X101800Y133186
X101800Y98186
X146800Y73186
X151800Y63186
X161800Y73186
X156800Y83186
X166800Y63186
X171800Y63186
X171800Y29167
X146800Y43186
X101800Y183186
X101800Y198186
T02
X61800Y203186
X81800Y203186
X86800Y183186
X86800Y173186
X86800Y163186
X86800Y153186
X86800Y143186
X86800Y133186
X86800Y123186
X86800Y113186
X86800Y103186
X86800Y93186
X86800Y83186
X86800Y73186
X86800Y63186
X86800Y53186
X76800Y48186
X76800Y28186
X101800Y38186
X116800Y53186
X116800Y63186
X116800Y73186
X116800Y83186
X116800Y93186
X116800Y103186
X116800Y113186
X116800Y123186
X116800Y133186
X116800Y143186
X116800Y153186
X116800Y163186
X116800Y173186
X116800Y183186
X161800Y178186
X161800Y168186
X166800Y93186
X166800Y83186
X171800Y75686
X176800Y83186
X176800Y93186
X176800Y43186
X166800Y43186
X136800Y38186
X136800Y28186
X121800Y38186
X61800Y98186
X61800Y108186
X26800Y68186
X26800Y48186
X26800Y38186
X26800Y28186
T03
X163139Y43186
X180461Y43186
T04
X47900Y30386
X65700Y30386
X65700Y55986
X47900Y55986
X6800Y88186
X6800Y98186
X6800Y108186
X6800Y118186
X6800Y128186
X6800Y138186
X6800Y148186
X6800Y158186
X9000Y194286
X9000Y212086
X34600Y212086
X34600Y194286
X151800Y213186
X161800Y213186
X171800Y213186
X181800Y213186
X191800Y213186
X194800Y158186
X194800Y148186
X194800Y138186
X194800Y128186
X194800Y118186
X194800Y108186
X194800Y98186
X194800Y88186
M30
