G75*
%MOIN*%
%OFA0B0*%
%FSLAX25Y25*%
%IPPOS*%
%LPD*%
%AMOC8*
5,1,8,0,0,1.08239X$1,22.5*
%
%ADD10C,0.00000*%
%ADD11OC8,0.06000*%
%ADD12C,0.06000*%
%ADD13C,0.04343*%
%ADD14C,0.08200*%
%ADD15C,0.04762*%
D10*
X0001800Y0023186D02*
X0001800Y0220037D01*
X0198650Y0220037D01*
X0198650Y0023186D01*
X0001800Y0023186D01*
X0161367Y0043186D02*
X0161369Y0043270D01*
X0161375Y0043353D01*
X0161385Y0043436D01*
X0161399Y0043519D01*
X0161416Y0043601D01*
X0161438Y0043682D01*
X0161463Y0043761D01*
X0161492Y0043840D01*
X0161525Y0043917D01*
X0161561Y0043992D01*
X0161601Y0044066D01*
X0161644Y0044138D01*
X0161691Y0044207D01*
X0161741Y0044274D01*
X0161794Y0044339D01*
X0161850Y0044401D01*
X0161908Y0044461D01*
X0161970Y0044518D01*
X0162034Y0044571D01*
X0162101Y0044622D01*
X0162170Y0044669D01*
X0162241Y0044714D01*
X0162314Y0044754D01*
X0162389Y0044791D01*
X0162466Y0044825D01*
X0162544Y0044855D01*
X0162623Y0044881D01*
X0162704Y0044904D01*
X0162786Y0044922D01*
X0162868Y0044937D01*
X0162951Y0044948D01*
X0163034Y0044955D01*
X0163118Y0044958D01*
X0163202Y0044957D01*
X0163285Y0044952D01*
X0163369Y0044943D01*
X0163451Y0044930D01*
X0163533Y0044914D01*
X0163614Y0044893D01*
X0163695Y0044869D01*
X0163773Y0044841D01*
X0163851Y0044809D01*
X0163927Y0044773D01*
X0164001Y0044734D01*
X0164073Y0044692D01*
X0164143Y0044646D01*
X0164211Y0044597D01*
X0164276Y0044545D01*
X0164339Y0044490D01*
X0164399Y0044432D01*
X0164457Y0044371D01*
X0164511Y0044307D01*
X0164563Y0044241D01*
X0164611Y0044173D01*
X0164656Y0044102D01*
X0164697Y0044029D01*
X0164736Y0043955D01*
X0164770Y0043879D01*
X0164801Y0043801D01*
X0164828Y0043722D01*
X0164852Y0043641D01*
X0164871Y0043560D01*
X0164887Y0043478D01*
X0164899Y0043395D01*
X0164907Y0043311D01*
X0164911Y0043228D01*
X0164911Y0043144D01*
X0164907Y0043061D01*
X0164899Y0042977D01*
X0164887Y0042894D01*
X0164871Y0042812D01*
X0164852Y0042731D01*
X0164828Y0042650D01*
X0164801Y0042571D01*
X0164770Y0042493D01*
X0164736Y0042417D01*
X0164697Y0042343D01*
X0164656Y0042270D01*
X0164611Y0042199D01*
X0164563Y0042131D01*
X0164511Y0042065D01*
X0164457Y0042001D01*
X0164399Y0041940D01*
X0164339Y0041882D01*
X0164276Y0041827D01*
X0164211Y0041775D01*
X0164143Y0041726D01*
X0164073Y0041680D01*
X0164001Y0041638D01*
X0163927Y0041599D01*
X0163851Y0041563D01*
X0163773Y0041531D01*
X0163695Y0041503D01*
X0163614Y0041479D01*
X0163533Y0041458D01*
X0163451Y0041442D01*
X0163369Y0041429D01*
X0163285Y0041420D01*
X0163202Y0041415D01*
X0163118Y0041414D01*
X0163034Y0041417D01*
X0162951Y0041424D01*
X0162868Y0041435D01*
X0162786Y0041450D01*
X0162704Y0041468D01*
X0162623Y0041491D01*
X0162544Y0041517D01*
X0162466Y0041547D01*
X0162389Y0041581D01*
X0162314Y0041618D01*
X0162241Y0041658D01*
X0162170Y0041703D01*
X0162101Y0041750D01*
X0162034Y0041801D01*
X0161970Y0041854D01*
X0161908Y0041911D01*
X0161850Y0041971D01*
X0161794Y0042033D01*
X0161741Y0042098D01*
X0161691Y0042165D01*
X0161644Y0042234D01*
X0161601Y0042306D01*
X0161561Y0042380D01*
X0161525Y0042455D01*
X0161492Y0042532D01*
X0161463Y0042611D01*
X0161438Y0042690D01*
X0161416Y0042771D01*
X0161399Y0042853D01*
X0161385Y0042936D01*
X0161375Y0043019D01*
X0161369Y0043102D01*
X0161367Y0043186D01*
X0178689Y0043186D02*
X0178691Y0043270D01*
X0178697Y0043353D01*
X0178707Y0043436D01*
X0178721Y0043519D01*
X0178738Y0043601D01*
X0178760Y0043682D01*
X0178785Y0043761D01*
X0178814Y0043840D01*
X0178847Y0043917D01*
X0178883Y0043992D01*
X0178923Y0044066D01*
X0178966Y0044138D01*
X0179013Y0044207D01*
X0179063Y0044274D01*
X0179116Y0044339D01*
X0179172Y0044401D01*
X0179230Y0044461D01*
X0179292Y0044518D01*
X0179356Y0044571D01*
X0179423Y0044622D01*
X0179492Y0044669D01*
X0179563Y0044714D01*
X0179636Y0044754D01*
X0179711Y0044791D01*
X0179788Y0044825D01*
X0179866Y0044855D01*
X0179945Y0044881D01*
X0180026Y0044904D01*
X0180108Y0044922D01*
X0180190Y0044937D01*
X0180273Y0044948D01*
X0180356Y0044955D01*
X0180440Y0044958D01*
X0180524Y0044957D01*
X0180607Y0044952D01*
X0180691Y0044943D01*
X0180773Y0044930D01*
X0180855Y0044914D01*
X0180936Y0044893D01*
X0181017Y0044869D01*
X0181095Y0044841D01*
X0181173Y0044809D01*
X0181249Y0044773D01*
X0181323Y0044734D01*
X0181395Y0044692D01*
X0181465Y0044646D01*
X0181533Y0044597D01*
X0181598Y0044545D01*
X0181661Y0044490D01*
X0181721Y0044432D01*
X0181779Y0044371D01*
X0181833Y0044307D01*
X0181885Y0044241D01*
X0181933Y0044173D01*
X0181978Y0044102D01*
X0182019Y0044029D01*
X0182058Y0043955D01*
X0182092Y0043879D01*
X0182123Y0043801D01*
X0182150Y0043722D01*
X0182174Y0043641D01*
X0182193Y0043560D01*
X0182209Y0043478D01*
X0182221Y0043395D01*
X0182229Y0043311D01*
X0182233Y0043228D01*
X0182233Y0043144D01*
X0182229Y0043061D01*
X0182221Y0042977D01*
X0182209Y0042894D01*
X0182193Y0042812D01*
X0182174Y0042731D01*
X0182150Y0042650D01*
X0182123Y0042571D01*
X0182092Y0042493D01*
X0182058Y0042417D01*
X0182019Y0042343D01*
X0181978Y0042270D01*
X0181933Y0042199D01*
X0181885Y0042131D01*
X0181833Y0042065D01*
X0181779Y0042001D01*
X0181721Y0041940D01*
X0181661Y0041882D01*
X0181598Y0041827D01*
X0181533Y0041775D01*
X0181465Y0041726D01*
X0181395Y0041680D01*
X0181323Y0041638D01*
X0181249Y0041599D01*
X0181173Y0041563D01*
X0181095Y0041531D01*
X0181017Y0041503D01*
X0180936Y0041479D01*
X0180855Y0041458D01*
X0180773Y0041442D01*
X0180691Y0041429D01*
X0180607Y0041420D01*
X0180524Y0041415D01*
X0180440Y0041414D01*
X0180356Y0041417D01*
X0180273Y0041424D01*
X0180190Y0041435D01*
X0180108Y0041450D01*
X0180026Y0041468D01*
X0179945Y0041491D01*
X0179866Y0041517D01*
X0179788Y0041547D01*
X0179711Y0041581D01*
X0179636Y0041618D01*
X0179563Y0041658D01*
X0179492Y0041703D01*
X0179423Y0041750D01*
X0179356Y0041801D01*
X0179292Y0041854D01*
X0179230Y0041911D01*
X0179172Y0041971D01*
X0179116Y0042033D01*
X0179063Y0042098D01*
X0179013Y0042165D01*
X0178966Y0042234D01*
X0178923Y0042306D01*
X0178883Y0042380D01*
X0178847Y0042455D01*
X0178814Y0042532D01*
X0178785Y0042611D01*
X0178760Y0042690D01*
X0178738Y0042771D01*
X0178721Y0042853D01*
X0178707Y0042936D01*
X0178697Y0043019D01*
X0178691Y0043102D01*
X0178689Y0043186D01*
D11*
X0176800Y0043186D03*
X0166800Y0043186D03*
X0136800Y0038186D03*
X0136800Y0028186D03*
X0121800Y0038186D03*
X0101800Y0038186D03*
X0076800Y0028186D03*
X0076800Y0048186D03*
X0061800Y0098186D03*
X0061800Y0108186D03*
X0026800Y0068186D03*
X0026800Y0048186D03*
X0026800Y0038186D03*
X0026800Y0028186D03*
X0161800Y0168186D03*
X0161800Y0178186D03*
X0166800Y0093186D03*
X0166800Y0083186D03*
X0171800Y0075686D03*
X0176800Y0083186D03*
X0176800Y0093186D03*
X0081800Y0203186D03*
X0061800Y0203186D03*
D12*
X0084200Y0183186D02*
X0089400Y0183186D01*
X0089400Y0173186D02*
X0084200Y0173186D01*
X0084200Y0163186D02*
X0089400Y0163186D01*
X0089400Y0153186D02*
X0084200Y0153186D01*
X0084200Y0143186D02*
X0089400Y0143186D01*
X0089400Y0133186D02*
X0084200Y0133186D01*
X0084200Y0123186D02*
X0089400Y0123186D01*
X0089400Y0113186D02*
X0084200Y0113186D01*
X0084200Y0103186D02*
X0089400Y0103186D01*
X0089400Y0093186D02*
X0084200Y0093186D01*
X0084200Y0083186D02*
X0089400Y0083186D01*
X0089400Y0073186D02*
X0084200Y0073186D01*
X0084200Y0063186D02*
X0089400Y0063186D01*
X0089400Y0053186D02*
X0084200Y0053186D01*
X0114200Y0053186D02*
X0119400Y0053186D01*
X0119400Y0063186D02*
X0114200Y0063186D01*
X0114200Y0073186D02*
X0119400Y0073186D01*
X0119400Y0083186D02*
X0114200Y0083186D01*
X0114200Y0093186D02*
X0119400Y0093186D01*
X0119400Y0103186D02*
X0114200Y0103186D01*
X0114200Y0113186D02*
X0119400Y0113186D01*
X0119400Y0123186D02*
X0114200Y0123186D01*
X0114200Y0133186D02*
X0119400Y0133186D01*
X0119400Y0143186D02*
X0114200Y0143186D01*
X0114200Y0153186D02*
X0119400Y0153186D01*
X0119400Y0163186D02*
X0114200Y0163186D01*
X0114200Y0173186D02*
X0119400Y0173186D01*
X0119400Y0183186D02*
X0114200Y0183186D01*
D13*
X0163139Y0043186D03*
X0180461Y0043186D03*
D14*
X0194800Y0088186D03*
X0194800Y0098186D03*
X0194800Y0108186D03*
X0194800Y0118186D03*
X0194800Y0128186D03*
X0194800Y0138186D03*
X0194800Y0148186D03*
X0194800Y0158186D03*
X0191800Y0213186D03*
X0181800Y0213186D03*
X0171800Y0213186D03*
X0161800Y0213186D03*
X0151800Y0213186D03*
X0034600Y0212086D03*
X0034600Y0194286D03*
X0009000Y0194286D03*
X0009000Y0212086D03*
X0006800Y0158186D03*
X0006800Y0148186D03*
X0006800Y0138186D03*
X0006800Y0128186D03*
X0006800Y0118186D03*
X0006800Y0108186D03*
X0006800Y0098186D03*
X0006800Y0088186D03*
X0047900Y0055986D03*
X0065700Y0055986D03*
X0065700Y0030386D03*
X0047900Y0030386D03*
D15*
X0076800Y0063186D03*
X0101800Y0063186D03*
X0126800Y0093186D03*
X0141800Y0103186D03*
X0146800Y0113186D03*
X0151800Y0123186D03*
X0126800Y0133186D03*
X0106800Y0143186D03*
X0101800Y0133186D03*
X0101800Y0098186D03*
X0146800Y0073186D03*
X0151800Y0063186D03*
X0161800Y0073186D03*
X0156800Y0083186D03*
X0166800Y0063186D03*
X0171800Y0063186D03*
X0146800Y0043186D03*
X0171800Y0029167D03*
X0036800Y0073186D03*
X0026800Y0083186D03*
X0036800Y0108186D03*
X0026800Y0118186D03*
X0101800Y0183186D03*
X0101800Y0198186D03*
M02*
