G75*
%MOIN*%
%OFA0B0*%
%FSLAX25Y25*%
%IPPOS*%
%LPD*%
%AMOC8*
5,1,8,0,0,1.08239X$1,22.5*
%
%ADD10C,0.00000*%
%ADD11C,0.00600*%
%ADD12C,0.01000*%
%ADD13C,0.00500*%
%ADD14C,0.00800*%
%ADD15C,0.00400*%
D10*
X0001800Y0023186D02*
X0001800Y0220037D01*
X0198650Y0220037D01*
X0198650Y0023186D01*
X0001800Y0023186D01*
X0161367Y0043186D02*
X0161369Y0043270D01*
X0161375Y0043353D01*
X0161385Y0043436D01*
X0161399Y0043519D01*
X0161416Y0043601D01*
X0161438Y0043682D01*
X0161463Y0043761D01*
X0161492Y0043840D01*
X0161525Y0043917D01*
X0161561Y0043992D01*
X0161601Y0044066D01*
X0161644Y0044138D01*
X0161691Y0044207D01*
X0161741Y0044274D01*
X0161794Y0044339D01*
X0161850Y0044401D01*
X0161908Y0044461D01*
X0161970Y0044518D01*
X0162034Y0044571D01*
X0162101Y0044622D01*
X0162170Y0044669D01*
X0162241Y0044714D01*
X0162314Y0044754D01*
X0162389Y0044791D01*
X0162466Y0044825D01*
X0162544Y0044855D01*
X0162623Y0044881D01*
X0162704Y0044904D01*
X0162786Y0044922D01*
X0162868Y0044937D01*
X0162951Y0044948D01*
X0163034Y0044955D01*
X0163118Y0044958D01*
X0163202Y0044957D01*
X0163285Y0044952D01*
X0163369Y0044943D01*
X0163451Y0044930D01*
X0163533Y0044914D01*
X0163614Y0044893D01*
X0163695Y0044869D01*
X0163773Y0044841D01*
X0163851Y0044809D01*
X0163927Y0044773D01*
X0164001Y0044734D01*
X0164073Y0044692D01*
X0164143Y0044646D01*
X0164211Y0044597D01*
X0164276Y0044545D01*
X0164339Y0044490D01*
X0164399Y0044432D01*
X0164457Y0044371D01*
X0164511Y0044307D01*
X0164563Y0044241D01*
X0164611Y0044173D01*
X0164656Y0044102D01*
X0164697Y0044029D01*
X0164736Y0043955D01*
X0164770Y0043879D01*
X0164801Y0043801D01*
X0164828Y0043722D01*
X0164852Y0043641D01*
X0164871Y0043560D01*
X0164887Y0043478D01*
X0164899Y0043395D01*
X0164907Y0043311D01*
X0164911Y0043228D01*
X0164911Y0043144D01*
X0164907Y0043061D01*
X0164899Y0042977D01*
X0164887Y0042894D01*
X0164871Y0042812D01*
X0164852Y0042731D01*
X0164828Y0042650D01*
X0164801Y0042571D01*
X0164770Y0042493D01*
X0164736Y0042417D01*
X0164697Y0042343D01*
X0164656Y0042270D01*
X0164611Y0042199D01*
X0164563Y0042131D01*
X0164511Y0042065D01*
X0164457Y0042001D01*
X0164399Y0041940D01*
X0164339Y0041882D01*
X0164276Y0041827D01*
X0164211Y0041775D01*
X0164143Y0041726D01*
X0164073Y0041680D01*
X0164001Y0041638D01*
X0163927Y0041599D01*
X0163851Y0041563D01*
X0163773Y0041531D01*
X0163695Y0041503D01*
X0163614Y0041479D01*
X0163533Y0041458D01*
X0163451Y0041442D01*
X0163369Y0041429D01*
X0163285Y0041420D01*
X0163202Y0041415D01*
X0163118Y0041414D01*
X0163034Y0041417D01*
X0162951Y0041424D01*
X0162868Y0041435D01*
X0162786Y0041450D01*
X0162704Y0041468D01*
X0162623Y0041491D01*
X0162544Y0041517D01*
X0162466Y0041547D01*
X0162389Y0041581D01*
X0162314Y0041618D01*
X0162241Y0041658D01*
X0162170Y0041703D01*
X0162101Y0041750D01*
X0162034Y0041801D01*
X0161970Y0041854D01*
X0161908Y0041911D01*
X0161850Y0041971D01*
X0161794Y0042033D01*
X0161741Y0042098D01*
X0161691Y0042165D01*
X0161644Y0042234D01*
X0161601Y0042306D01*
X0161561Y0042380D01*
X0161525Y0042455D01*
X0161492Y0042532D01*
X0161463Y0042611D01*
X0161438Y0042690D01*
X0161416Y0042771D01*
X0161399Y0042853D01*
X0161385Y0042936D01*
X0161375Y0043019D01*
X0161369Y0043102D01*
X0161367Y0043186D01*
X0178689Y0043186D02*
X0178691Y0043270D01*
X0178697Y0043353D01*
X0178707Y0043436D01*
X0178721Y0043519D01*
X0178738Y0043601D01*
X0178760Y0043682D01*
X0178785Y0043761D01*
X0178814Y0043840D01*
X0178847Y0043917D01*
X0178883Y0043992D01*
X0178923Y0044066D01*
X0178966Y0044138D01*
X0179013Y0044207D01*
X0179063Y0044274D01*
X0179116Y0044339D01*
X0179172Y0044401D01*
X0179230Y0044461D01*
X0179292Y0044518D01*
X0179356Y0044571D01*
X0179423Y0044622D01*
X0179492Y0044669D01*
X0179563Y0044714D01*
X0179636Y0044754D01*
X0179711Y0044791D01*
X0179788Y0044825D01*
X0179866Y0044855D01*
X0179945Y0044881D01*
X0180026Y0044904D01*
X0180108Y0044922D01*
X0180190Y0044937D01*
X0180273Y0044948D01*
X0180356Y0044955D01*
X0180440Y0044958D01*
X0180524Y0044957D01*
X0180607Y0044952D01*
X0180691Y0044943D01*
X0180773Y0044930D01*
X0180855Y0044914D01*
X0180936Y0044893D01*
X0181017Y0044869D01*
X0181095Y0044841D01*
X0181173Y0044809D01*
X0181249Y0044773D01*
X0181323Y0044734D01*
X0181395Y0044692D01*
X0181465Y0044646D01*
X0181533Y0044597D01*
X0181598Y0044545D01*
X0181661Y0044490D01*
X0181721Y0044432D01*
X0181779Y0044371D01*
X0181833Y0044307D01*
X0181885Y0044241D01*
X0181933Y0044173D01*
X0181978Y0044102D01*
X0182019Y0044029D01*
X0182058Y0043955D01*
X0182092Y0043879D01*
X0182123Y0043801D01*
X0182150Y0043722D01*
X0182174Y0043641D01*
X0182193Y0043560D01*
X0182209Y0043478D01*
X0182221Y0043395D01*
X0182229Y0043311D01*
X0182233Y0043228D01*
X0182233Y0043144D01*
X0182229Y0043061D01*
X0182221Y0042977D01*
X0182209Y0042894D01*
X0182193Y0042812D01*
X0182174Y0042731D01*
X0182150Y0042650D01*
X0182123Y0042571D01*
X0182092Y0042493D01*
X0182058Y0042417D01*
X0182019Y0042343D01*
X0181978Y0042270D01*
X0181933Y0042199D01*
X0181885Y0042131D01*
X0181833Y0042065D01*
X0181779Y0042001D01*
X0181721Y0041940D01*
X0181661Y0041882D01*
X0181598Y0041827D01*
X0181533Y0041775D01*
X0181465Y0041726D01*
X0181395Y0041680D01*
X0181323Y0041638D01*
X0181249Y0041599D01*
X0181173Y0041563D01*
X0181095Y0041531D01*
X0181017Y0041503D01*
X0180936Y0041479D01*
X0180855Y0041458D01*
X0180773Y0041442D01*
X0180691Y0041429D01*
X0180607Y0041420D01*
X0180524Y0041415D01*
X0180440Y0041414D01*
X0180356Y0041417D01*
X0180273Y0041424D01*
X0180190Y0041435D01*
X0180108Y0041450D01*
X0180026Y0041468D01*
X0179945Y0041491D01*
X0179866Y0041517D01*
X0179788Y0041547D01*
X0179711Y0041581D01*
X0179636Y0041618D01*
X0179563Y0041658D01*
X0179492Y0041703D01*
X0179423Y0041750D01*
X0179356Y0041801D01*
X0179292Y0041854D01*
X0179230Y0041911D01*
X0179172Y0041971D01*
X0179116Y0042033D01*
X0179063Y0042098D01*
X0179013Y0042165D01*
X0178966Y0042234D01*
X0178923Y0042306D01*
X0178883Y0042380D01*
X0178847Y0042455D01*
X0178814Y0042532D01*
X0178785Y0042611D01*
X0178760Y0042690D01*
X0178738Y0042771D01*
X0178721Y0042853D01*
X0178707Y0042936D01*
X0178697Y0043019D01*
X0178691Y0043102D01*
X0178689Y0043186D01*
D11*
X0181300Y0039186D02*
X0181298Y0039126D01*
X0181293Y0039065D01*
X0181284Y0039006D01*
X0181271Y0038947D01*
X0181255Y0038888D01*
X0181235Y0038831D01*
X0181212Y0038776D01*
X0181185Y0038721D01*
X0181156Y0038669D01*
X0181123Y0038618D01*
X0181087Y0038569D01*
X0181049Y0038523D01*
X0181007Y0038479D01*
X0180963Y0038437D01*
X0180917Y0038399D01*
X0180868Y0038363D01*
X0180817Y0038330D01*
X0180765Y0038301D01*
X0180710Y0038274D01*
X0180655Y0038251D01*
X0180598Y0038231D01*
X0180539Y0038215D01*
X0180480Y0038202D01*
X0180421Y0038193D01*
X0180360Y0038188D01*
X0180300Y0038186D01*
X0163300Y0038186D01*
X0163240Y0038188D01*
X0163179Y0038193D01*
X0163120Y0038202D01*
X0163061Y0038215D01*
X0163002Y0038231D01*
X0162945Y0038251D01*
X0162890Y0038274D01*
X0162835Y0038301D01*
X0162783Y0038330D01*
X0162732Y0038363D01*
X0162683Y0038399D01*
X0162637Y0038437D01*
X0162593Y0038479D01*
X0162551Y0038523D01*
X0162513Y0038569D01*
X0162477Y0038618D01*
X0162444Y0038669D01*
X0162415Y0038721D01*
X0162388Y0038776D01*
X0162365Y0038831D01*
X0162345Y0038888D01*
X0162329Y0038947D01*
X0162316Y0039006D01*
X0162307Y0039065D01*
X0162302Y0039126D01*
X0162300Y0039186D01*
X0162300Y0047186D01*
X0162302Y0047246D01*
X0162307Y0047307D01*
X0162316Y0047366D01*
X0162329Y0047425D01*
X0162345Y0047484D01*
X0162365Y0047541D01*
X0162388Y0047596D01*
X0162415Y0047651D01*
X0162444Y0047703D01*
X0162477Y0047754D01*
X0162513Y0047803D01*
X0162551Y0047849D01*
X0162593Y0047893D01*
X0162637Y0047935D01*
X0162683Y0047973D01*
X0162732Y0048009D01*
X0162783Y0048042D01*
X0162835Y0048071D01*
X0162890Y0048098D01*
X0162945Y0048121D01*
X0163002Y0048141D01*
X0163061Y0048157D01*
X0163120Y0048170D01*
X0163179Y0048179D01*
X0163240Y0048184D01*
X0163300Y0048186D01*
X0180300Y0048186D01*
X0180360Y0048184D01*
X0180421Y0048179D01*
X0180480Y0048170D01*
X0180539Y0048157D01*
X0180598Y0048141D01*
X0180655Y0048121D01*
X0180710Y0048098D01*
X0180765Y0048071D01*
X0180817Y0048042D01*
X0180868Y0048009D01*
X0180917Y0047973D01*
X0180963Y0047935D01*
X0181007Y0047893D01*
X0181049Y0047849D01*
X0181087Y0047803D01*
X0181123Y0047754D01*
X0181156Y0047703D01*
X0181185Y0047651D01*
X0181212Y0047596D01*
X0181235Y0047541D01*
X0181255Y0047484D01*
X0181271Y0047425D01*
X0181284Y0047366D01*
X0181293Y0047307D01*
X0181298Y0047246D01*
X0181300Y0047186D01*
X0181300Y0039186D01*
X0173300Y0043186D02*
X0172800Y0043186D01*
X0170800Y0043186D02*
X0170300Y0043186D01*
X0146500Y0033168D02*
X0146500Y0031433D01*
X0146500Y0032300D02*
X0143898Y0032300D01*
X0144765Y0031433D01*
X0143898Y0030221D02*
X0143898Y0029354D01*
X0143898Y0029787D02*
X0146066Y0029787D01*
X0146500Y0029354D01*
X0146500Y0028920D01*
X0146066Y0028486D01*
X0130800Y0033186D02*
X0130802Y0033338D01*
X0130808Y0033489D01*
X0130817Y0033640D01*
X0130831Y0033792D01*
X0130848Y0033942D01*
X0130869Y0034092D01*
X0130894Y0034242D01*
X0130922Y0034391D01*
X0130955Y0034539D01*
X0130991Y0034686D01*
X0131030Y0034833D01*
X0131074Y0034978D01*
X0131121Y0035122D01*
X0131172Y0035265D01*
X0131226Y0035406D01*
X0131284Y0035547D01*
X0131345Y0035685D01*
X0131410Y0035822D01*
X0131479Y0035958D01*
X0131550Y0036091D01*
X0131625Y0036223D01*
X0131704Y0036353D01*
X0131785Y0036480D01*
X0131870Y0036606D01*
X0131958Y0036730D01*
X0132049Y0036851D01*
X0132143Y0036970D01*
X0132241Y0037086D01*
X0132341Y0037200D01*
X0132443Y0037312D01*
X0132549Y0037420D01*
X0132657Y0037526D01*
X0132768Y0037630D01*
X0132882Y0037730D01*
X0132998Y0037828D01*
X0133117Y0037922D01*
X0142800Y0033186D02*
X0142798Y0033032D01*
X0142792Y0032878D01*
X0142782Y0032724D01*
X0142768Y0032570D01*
X0142751Y0032417D01*
X0142729Y0032265D01*
X0142703Y0032113D01*
X0142674Y0031961D01*
X0142640Y0031811D01*
X0142603Y0031661D01*
X0142562Y0031513D01*
X0142517Y0031365D01*
X0142468Y0031219D01*
X0142416Y0031074D01*
X0142360Y0030931D01*
X0142300Y0030788D01*
X0142237Y0030648D01*
X0142170Y0030509D01*
X0142099Y0030372D01*
X0142025Y0030237D01*
X0141948Y0030104D01*
X0141867Y0029972D01*
X0141783Y0029843D01*
X0141695Y0029716D01*
X0141604Y0029592D01*
X0141511Y0029470D01*
X0141413Y0029350D01*
X0141313Y0029233D01*
X0141210Y0029118D01*
X0141104Y0029006D01*
X0140996Y0028897D01*
X0140884Y0028791D01*
X0140770Y0028687D01*
X0140653Y0028587D01*
X0140534Y0028489D01*
X0140412Y0028395D01*
X0140287Y0028304D01*
X0142800Y0033186D02*
X0142798Y0033336D01*
X0142792Y0033487D01*
X0142783Y0033637D01*
X0142770Y0033786D01*
X0142753Y0033936D01*
X0142732Y0034085D01*
X0142708Y0034233D01*
X0142680Y0034381D01*
X0142648Y0034528D01*
X0142613Y0034674D01*
X0142573Y0034819D01*
X0142531Y0034963D01*
X0142484Y0035106D01*
X0142434Y0035248D01*
X0142381Y0035389D01*
X0142324Y0035528D01*
X0142264Y0035666D01*
X0142200Y0035802D01*
X0142133Y0035936D01*
X0142062Y0036069D01*
X0141988Y0036200D01*
X0141911Y0036329D01*
X0141830Y0036456D01*
X0141747Y0036581D01*
X0141660Y0036704D01*
X0141571Y0036825D01*
X0141478Y0036943D01*
X0141382Y0037059D01*
X0141284Y0037173D01*
X0141183Y0037284D01*
X0141078Y0037393D01*
X0140972Y0037498D01*
X0140862Y0037602D01*
X0140750Y0037702D01*
X0140636Y0037800D01*
X0140519Y0037894D01*
X0140400Y0037986D01*
X0130800Y0033186D02*
X0130802Y0033034D01*
X0130808Y0032883D01*
X0130817Y0032732D01*
X0130831Y0032580D01*
X0130848Y0032430D01*
X0130869Y0032280D01*
X0130894Y0032130D01*
X0130922Y0031981D01*
X0130955Y0031833D01*
X0130991Y0031686D01*
X0131030Y0031539D01*
X0131074Y0031394D01*
X0131121Y0031250D01*
X0131172Y0031107D01*
X0131226Y0030966D01*
X0131284Y0030825D01*
X0131345Y0030687D01*
X0131410Y0030550D01*
X0131479Y0030414D01*
X0131550Y0030281D01*
X0131625Y0030149D01*
X0131704Y0030019D01*
X0131785Y0029892D01*
X0131870Y0029766D01*
X0131958Y0029642D01*
X0132049Y0029521D01*
X0132143Y0029402D01*
X0132241Y0029286D01*
X0132341Y0029172D01*
X0132443Y0029060D01*
X0132549Y0028952D01*
X0132657Y0028846D01*
X0132768Y0028742D01*
X0132882Y0028642D01*
X0132998Y0028544D01*
X0133117Y0028450D01*
X0117800Y0034686D02*
X0116800Y0034686D01*
X0116300Y0035186D01*
X0107300Y0035186D01*
X0106800Y0034686D01*
X0105800Y0034686D01*
X0105740Y0034688D01*
X0105679Y0034693D01*
X0105620Y0034702D01*
X0105561Y0034715D01*
X0105502Y0034731D01*
X0105445Y0034751D01*
X0105390Y0034774D01*
X0105335Y0034801D01*
X0105283Y0034830D01*
X0105232Y0034863D01*
X0105183Y0034899D01*
X0105137Y0034937D01*
X0105093Y0034979D01*
X0105051Y0035023D01*
X0105013Y0035069D01*
X0104977Y0035118D01*
X0104944Y0035169D01*
X0104915Y0035221D01*
X0104888Y0035276D01*
X0104865Y0035331D01*
X0104845Y0035388D01*
X0104829Y0035447D01*
X0104816Y0035506D01*
X0104807Y0035565D01*
X0104802Y0035626D01*
X0104800Y0035686D01*
X0104800Y0040686D02*
X0104802Y0040746D01*
X0104807Y0040807D01*
X0104816Y0040866D01*
X0104829Y0040925D01*
X0104845Y0040984D01*
X0104865Y0041041D01*
X0104888Y0041096D01*
X0104915Y0041151D01*
X0104944Y0041203D01*
X0104977Y0041254D01*
X0105013Y0041303D01*
X0105051Y0041349D01*
X0105093Y0041393D01*
X0105137Y0041435D01*
X0105183Y0041473D01*
X0105232Y0041509D01*
X0105283Y0041542D01*
X0105335Y0041571D01*
X0105390Y0041598D01*
X0105445Y0041621D01*
X0105502Y0041641D01*
X0105561Y0041657D01*
X0105620Y0041670D01*
X0105679Y0041679D01*
X0105740Y0041684D01*
X0105800Y0041686D01*
X0106800Y0041686D01*
X0107300Y0041186D01*
X0116300Y0041186D01*
X0116800Y0041686D01*
X0117800Y0041686D01*
X0117860Y0041684D01*
X0117921Y0041679D01*
X0117980Y0041670D01*
X0118039Y0041657D01*
X0118098Y0041641D01*
X0118155Y0041621D01*
X0118210Y0041598D01*
X0118265Y0041571D01*
X0118317Y0041542D01*
X0118368Y0041509D01*
X0118417Y0041473D01*
X0118463Y0041435D01*
X0118507Y0041393D01*
X0118549Y0041349D01*
X0118587Y0041303D01*
X0118623Y0041254D01*
X0118656Y0041203D01*
X0118685Y0041151D01*
X0118712Y0041096D01*
X0118735Y0041041D01*
X0118755Y0040984D01*
X0118771Y0040925D01*
X0118784Y0040866D01*
X0118793Y0040807D01*
X0118798Y0040746D01*
X0118800Y0040686D01*
X0118800Y0035686D02*
X0118798Y0035626D01*
X0118793Y0035565D01*
X0118784Y0035506D01*
X0118771Y0035447D01*
X0118755Y0035388D01*
X0118735Y0035331D01*
X0118712Y0035276D01*
X0118685Y0035221D01*
X0118656Y0035169D01*
X0118623Y0035118D01*
X0118587Y0035069D01*
X0118549Y0035023D01*
X0118507Y0034979D01*
X0118463Y0034937D01*
X0118417Y0034899D01*
X0118368Y0034863D01*
X0118317Y0034830D01*
X0118265Y0034801D01*
X0118210Y0034774D01*
X0118155Y0034751D01*
X0118098Y0034731D01*
X0118039Y0034715D01*
X0117980Y0034702D01*
X0117921Y0034693D01*
X0117860Y0034688D01*
X0117800Y0034686D01*
X0113300Y0048186D02*
X0090300Y0048186D01*
X0090300Y0188186D01*
X0097800Y0188186D01*
X0097802Y0188060D01*
X0097808Y0187935D01*
X0097818Y0187810D01*
X0097832Y0187685D01*
X0097849Y0187560D01*
X0097871Y0187436D01*
X0097896Y0187313D01*
X0097926Y0187191D01*
X0097959Y0187070D01*
X0097996Y0186950D01*
X0098036Y0186831D01*
X0098081Y0186714D01*
X0098129Y0186597D01*
X0098181Y0186483D01*
X0098236Y0186370D01*
X0098295Y0186259D01*
X0098357Y0186150D01*
X0098423Y0186043D01*
X0098492Y0185938D01*
X0098564Y0185835D01*
X0098639Y0185734D01*
X0098718Y0185636D01*
X0098800Y0185541D01*
X0098884Y0185448D01*
X0098972Y0185358D01*
X0099062Y0185270D01*
X0099155Y0185186D01*
X0099250Y0185104D01*
X0099348Y0185025D01*
X0099449Y0184950D01*
X0099552Y0184878D01*
X0099657Y0184809D01*
X0099764Y0184743D01*
X0099873Y0184681D01*
X0099984Y0184622D01*
X0100097Y0184567D01*
X0100211Y0184515D01*
X0100328Y0184467D01*
X0100445Y0184422D01*
X0100564Y0184382D01*
X0100684Y0184345D01*
X0100805Y0184312D01*
X0100927Y0184282D01*
X0101050Y0184257D01*
X0101174Y0184235D01*
X0101299Y0184218D01*
X0101424Y0184204D01*
X0101549Y0184194D01*
X0101674Y0184188D01*
X0101800Y0184186D01*
X0101926Y0184188D01*
X0102051Y0184194D01*
X0102176Y0184204D01*
X0102301Y0184218D01*
X0102426Y0184235D01*
X0102550Y0184257D01*
X0102673Y0184282D01*
X0102795Y0184312D01*
X0102916Y0184345D01*
X0103036Y0184382D01*
X0103155Y0184422D01*
X0103272Y0184467D01*
X0103389Y0184515D01*
X0103503Y0184567D01*
X0103616Y0184622D01*
X0103727Y0184681D01*
X0103836Y0184743D01*
X0103943Y0184809D01*
X0104048Y0184878D01*
X0104151Y0184950D01*
X0104252Y0185025D01*
X0104350Y0185104D01*
X0104445Y0185186D01*
X0104538Y0185270D01*
X0104628Y0185358D01*
X0104716Y0185448D01*
X0104800Y0185541D01*
X0104882Y0185636D01*
X0104961Y0185734D01*
X0105036Y0185835D01*
X0105108Y0185938D01*
X0105177Y0186043D01*
X0105243Y0186150D01*
X0105305Y0186259D01*
X0105364Y0186370D01*
X0105419Y0186483D01*
X0105471Y0186597D01*
X0105519Y0186714D01*
X0105564Y0186831D01*
X0105604Y0186950D01*
X0105641Y0187070D01*
X0105674Y0187191D01*
X0105704Y0187313D01*
X0105729Y0187436D01*
X0105751Y0187560D01*
X0105768Y0187685D01*
X0105782Y0187810D01*
X0105792Y0187935D01*
X0105798Y0188060D01*
X0105800Y0188186D01*
X0113300Y0188186D01*
X0113300Y0048186D01*
X0080300Y0044186D02*
X0080300Y0043186D01*
X0079800Y0042686D01*
X0079800Y0033686D01*
X0080300Y0033186D01*
X0080300Y0032186D01*
X0080298Y0032126D01*
X0080293Y0032065D01*
X0080284Y0032006D01*
X0080271Y0031947D01*
X0080255Y0031888D01*
X0080235Y0031831D01*
X0080212Y0031776D01*
X0080185Y0031721D01*
X0080156Y0031669D01*
X0080123Y0031618D01*
X0080087Y0031569D01*
X0080049Y0031523D01*
X0080007Y0031479D01*
X0079963Y0031437D01*
X0079917Y0031399D01*
X0079868Y0031363D01*
X0079817Y0031330D01*
X0079765Y0031301D01*
X0079710Y0031274D01*
X0079655Y0031251D01*
X0079598Y0031231D01*
X0079539Y0031215D01*
X0079480Y0031202D01*
X0079421Y0031193D01*
X0079360Y0031188D01*
X0079300Y0031186D01*
X0074300Y0031186D02*
X0074240Y0031188D01*
X0074179Y0031193D01*
X0074120Y0031202D01*
X0074061Y0031215D01*
X0074002Y0031231D01*
X0073945Y0031251D01*
X0073890Y0031274D01*
X0073835Y0031301D01*
X0073783Y0031330D01*
X0073732Y0031363D01*
X0073683Y0031399D01*
X0073637Y0031437D01*
X0073593Y0031479D01*
X0073551Y0031523D01*
X0073513Y0031569D01*
X0073477Y0031618D01*
X0073444Y0031669D01*
X0073415Y0031721D01*
X0073388Y0031776D01*
X0073365Y0031831D01*
X0073345Y0031888D01*
X0073329Y0031947D01*
X0073316Y0032006D01*
X0073307Y0032065D01*
X0073302Y0032126D01*
X0073300Y0032186D01*
X0073300Y0033186D01*
X0073800Y0033686D01*
X0073800Y0042686D01*
X0073300Y0043186D01*
X0073300Y0044186D01*
X0073302Y0044246D01*
X0073307Y0044307D01*
X0073316Y0044366D01*
X0073329Y0044425D01*
X0073345Y0044484D01*
X0073365Y0044541D01*
X0073388Y0044596D01*
X0073415Y0044651D01*
X0073444Y0044703D01*
X0073477Y0044754D01*
X0073513Y0044803D01*
X0073551Y0044849D01*
X0073593Y0044893D01*
X0073637Y0044935D01*
X0073683Y0044973D01*
X0073732Y0045009D01*
X0073783Y0045042D01*
X0073835Y0045071D01*
X0073890Y0045098D01*
X0073945Y0045121D01*
X0074002Y0045141D01*
X0074061Y0045157D01*
X0074120Y0045170D01*
X0074179Y0045179D01*
X0074240Y0045184D01*
X0074300Y0045186D01*
X0079300Y0045186D02*
X0079360Y0045184D01*
X0079421Y0045179D01*
X0079480Y0045170D01*
X0079539Y0045157D01*
X0079598Y0045141D01*
X0079655Y0045121D01*
X0079710Y0045098D01*
X0079765Y0045071D01*
X0079817Y0045042D01*
X0079868Y0045009D01*
X0079917Y0044973D01*
X0079963Y0044935D01*
X0080007Y0044893D01*
X0080049Y0044849D01*
X0080087Y0044803D01*
X0080123Y0044754D01*
X0080156Y0044703D01*
X0080185Y0044651D01*
X0080212Y0044596D01*
X0080235Y0044541D01*
X0080255Y0044484D01*
X0080271Y0044425D01*
X0080284Y0044366D01*
X0080293Y0044307D01*
X0080298Y0044246D01*
X0080300Y0044186D01*
X0065800Y0093686D02*
X0057800Y0093686D01*
X0057740Y0093688D01*
X0057679Y0093693D01*
X0057620Y0093702D01*
X0057561Y0093715D01*
X0057502Y0093731D01*
X0057445Y0093751D01*
X0057390Y0093774D01*
X0057335Y0093801D01*
X0057283Y0093830D01*
X0057232Y0093863D01*
X0057183Y0093899D01*
X0057137Y0093937D01*
X0057093Y0093979D01*
X0057051Y0094023D01*
X0057013Y0094069D01*
X0056977Y0094118D01*
X0056944Y0094169D01*
X0056915Y0094221D01*
X0056888Y0094276D01*
X0056865Y0094331D01*
X0056845Y0094388D01*
X0056829Y0094447D01*
X0056816Y0094506D01*
X0056807Y0094565D01*
X0056802Y0094626D01*
X0056800Y0094686D01*
X0056800Y0111686D01*
X0056802Y0111746D01*
X0056807Y0111807D01*
X0056816Y0111866D01*
X0056829Y0111925D01*
X0056845Y0111984D01*
X0056865Y0112041D01*
X0056888Y0112096D01*
X0056915Y0112151D01*
X0056944Y0112203D01*
X0056977Y0112254D01*
X0057013Y0112303D01*
X0057051Y0112349D01*
X0057093Y0112393D01*
X0057137Y0112435D01*
X0057183Y0112473D01*
X0057232Y0112509D01*
X0057283Y0112542D01*
X0057335Y0112571D01*
X0057390Y0112598D01*
X0057445Y0112621D01*
X0057502Y0112641D01*
X0057561Y0112657D01*
X0057620Y0112670D01*
X0057679Y0112679D01*
X0057740Y0112684D01*
X0057800Y0112686D01*
X0065800Y0112686D01*
X0065860Y0112684D01*
X0065921Y0112679D01*
X0065980Y0112670D01*
X0066039Y0112657D01*
X0066098Y0112641D01*
X0066155Y0112621D01*
X0066210Y0112598D01*
X0066265Y0112571D01*
X0066317Y0112542D01*
X0066368Y0112509D01*
X0066417Y0112473D01*
X0066463Y0112435D01*
X0066507Y0112393D01*
X0066549Y0112349D01*
X0066587Y0112303D01*
X0066623Y0112254D01*
X0066656Y0112203D01*
X0066685Y0112151D01*
X0066712Y0112096D01*
X0066735Y0112041D01*
X0066755Y0111984D01*
X0066771Y0111925D01*
X0066784Y0111866D01*
X0066793Y0111807D01*
X0066798Y0111746D01*
X0066800Y0111686D01*
X0066800Y0094686D01*
X0066798Y0094626D01*
X0066793Y0094565D01*
X0066784Y0094506D01*
X0066771Y0094447D01*
X0066755Y0094388D01*
X0066735Y0094331D01*
X0066712Y0094276D01*
X0066685Y0094221D01*
X0066656Y0094169D01*
X0066623Y0094118D01*
X0066587Y0094069D01*
X0066549Y0094023D01*
X0066507Y0093979D01*
X0066463Y0093937D01*
X0066417Y0093899D01*
X0066368Y0093863D01*
X0066317Y0093830D01*
X0066265Y0093801D01*
X0066210Y0093774D01*
X0066155Y0093751D01*
X0066098Y0093731D01*
X0066039Y0093715D01*
X0065980Y0093702D01*
X0065921Y0093693D01*
X0065860Y0093688D01*
X0065800Y0093686D01*
X0061800Y0101686D02*
X0061800Y0102186D01*
X0061800Y0104186D02*
X0061800Y0104686D01*
X0030300Y0064186D02*
X0030300Y0063186D01*
X0029800Y0062686D01*
X0029800Y0053686D01*
X0030300Y0053186D01*
X0030300Y0052186D01*
X0030298Y0052126D01*
X0030293Y0052065D01*
X0030284Y0052006D01*
X0030271Y0051947D01*
X0030255Y0051888D01*
X0030235Y0051831D01*
X0030212Y0051776D01*
X0030185Y0051721D01*
X0030156Y0051669D01*
X0030123Y0051618D01*
X0030087Y0051569D01*
X0030049Y0051523D01*
X0030007Y0051479D01*
X0029963Y0051437D01*
X0029917Y0051399D01*
X0029868Y0051363D01*
X0029817Y0051330D01*
X0029765Y0051301D01*
X0029710Y0051274D01*
X0029655Y0051251D01*
X0029598Y0051231D01*
X0029539Y0051215D01*
X0029480Y0051202D01*
X0029421Y0051193D01*
X0029360Y0051188D01*
X0029300Y0051186D01*
X0024300Y0051186D02*
X0024240Y0051188D01*
X0024179Y0051193D01*
X0024120Y0051202D01*
X0024061Y0051215D01*
X0024002Y0051231D01*
X0023945Y0051251D01*
X0023890Y0051274D01*
X0023835Y0051301D01*
X0023783Y0051330D01*
X0023732Y0051363D01*
X0023683Y0051399D01*
X0023637Y0051437D01*
X0023593Y0051479D01*
X0023551Y0051523D01*
X0023513Y0051569D01*
X0023477Y0051618D01*
X0023444Y0051669D01*
X0023415Y0051721D01*
X0023388Y0051776D01*
X0023365Y0051831D01*
X0023345Y0051888D01*
X0023329Y0051947D01*
X0023316Y0052006D01*
X0023307Y0052065D01*
X0023302Y0052126D01*
X0023300Y0052186D01*
X0023300Y0053186D01*
X0023800Y0053686D01*
X0023800Y0062686D01*
X0023300Y0063186D01*
X0023300Y0064186D01*
X0023302Y0064246D01*
X0023307Y0064307D01*
X0023316Y0064366D01*
X0023329Y0064425D01*
X0023345Y0064484D01*
X0023365Y0064541D01*
X0023388Y0064596D01*
X0023415Y0064651D01*
X0023444Y0064703D01*
X0023477Y0064754D01*
X0023513Y0064803D01*
X0023551Y0064849D01*
X0023593Y0064893D01*
X0023637Y0064935D01*
X0023683Y0064973D01*
X0023732Y0065009D01*
X0023783Y0065042D01*
X0023835Y0065071D01*
X0023890Y0065098D01*
X0023945Y0065121D01*
X0024002Y0065141D01*
X0024061Y0065157D01*
X0024120Y0065170D01*
X0024179Y0065179D01*
X0024240Y0065184D01*
X0024300Y0065186D01*
X0029300Y0065186D02*
X0029360Y0065184D01*
X0029421Y0065179D01*
X0029480Y0065170D01*
X0029539Y0065157D01*
X0029598Y0065141D01*
X0029655Y0065121D01*
X0029710Y0065098D01*
X0029765Y0065071D01*
X0029817Y0065042D01*
X0029868Y0065009D01*
X0029917Y0064973D01*
X0029963Y0064935D01*
X0030007Y0064893D01*
X0030049Y0064849D01*
X0030087Y0064803D01*
X0030123Y0064754D01*
X0030156Y0064703D01*
X0030185Y0064651D01*
X0030212Y0064596D01*
X0030235Y0064541D01*
X0030255Y0064484D01*
X0030271Y0064425D01*
X0030284Y0064366D01*
X0030293Y0064307D01*
X0030298Y0064246D01*
X0030300Y0064186D01*
X0032800Y0033186D02*
X0032798Y0033032D01*
X0032792Y0032878D01*
X0032782Y0032724D01*
X0032768Y0032570D01*
X0032751Y0032417D01*
X0032729Y0032265D01*
X0032703Y0032113D01*
X0032674Y0031961D01*
X0032640Y0031811D01*
X0032603Y0031661D01*
X0032562Y0031513D01*
X0032517Y0031365D01*
X0032468Y0031219D01*
X0032416Y0031074D01*
X0032360Y0030931D01*
X0032300Y0030788D01*
X0032237Y0030648D01*
X0032170Y0030509D01*
X0032099Y0030372D01*
X0032025Y0030237D01*
X0031948Y0030104D01*
X0031867Y0029972D01*
X0031783Y0029843D01*
X0031695Y0029716D01*
X0031604Y0029592D01*
X0031511Y0029470D01*
X0031413Y0029350D01*
X0031313Y0029233D01*
X0031210Y0029118D01*
X0031104Y0029006D01*
X0030996Y0028897D01*
X0030884Y0028791D01*
X0030770Y0028687D01*
X0030653Y0028587D01*
X0030534Y0028489D01*
X0030412Y0028395D01*
X0030287Y0028304D01*
X0020800Y0033186D02*
X0020802Y0033338D01*
X0020808Y0033489D01*
X0020817Y0033640D01*
X0020831Y0033792D01*
X0020848Y0033942D01*
X0020869Y0034092D01*
X0020894Y0034242D01*
X0020922Y0034391D01*
X0020955Y0034539D01*
X0020991Y0034686D01*
X0021030Y0034833D01*
X0021074Y0034978D01*
X0021121Y0035122D01*
X0021172Y0035265D01*
X0021226Y0035406D01*
X0021284Y0035547D01*
X0021345Y0035685D01*
X0021410Y0035822D01*
X0021479Y0035958D01*
X0021550Y0036091D01*
X0021625Y0036223D01*
X0021704Y0036353D01*
X0021785Y0036480D01*
X0021870Y0036606D01*
X0021958Y0036730D01*
X0022049Y0036851D01*
X0022143Y0036970D01*
X0022241Y0037086D01*
X0022341Y0037200D01*
X0022443Y0037312D01*
X0022549Y0037420D01*
X0022657Y0037526D01*
X0022768Y0037630D01*
X0022882Y0037730D01*
X0022998Y0037828D01*
X0023117Y0037922D01*
X0020800Y0033186D02*
X0020802Y0033034D01*
X0020808Y0032883D01*
X0020817Y0032732D01*
X0020831Y0032580D01*
X0020848Y0032430D01*
X0020869Y0032280D01*
X0020894Y0032130D01*
X0020922Y0031981D01*
X0020955Y0031833D01*
X0020991Y0031686D01*
X0021030Y0031539D01*
X0021074Y0031394D01*
X0021121Y0031250D01*
X0021172Y0031107D01*
X0021226Y0030966D01*
X0021284Y0030825D01*
X0021345Y0030687D01*
X0021410Y0030550D01*
X0021479Y0030414D01*
X0021550Y0030281D01*
X0021625Y0030149D01*
X0021704Y0030019D01*
X0021785Y0029892D01*
X0021870Y0029766D01*
X0021958Y0029642D01*
X0022049Y0029521D01*
X0022143Y0029402D01*
X0022241Y0029286D01*
X0022341Y0029172D01*
X0022443Y0029060D01*
X0022549Y0028952D01*
X0022657Y0028846D01*
X0022768Y0028742D01*
X0022882Y0028642D01*
X0022998Y0028544D01*
X0023117Y0028450D01*
X0032800Y0033186D02*
X0032798Y0033336D01*
X0032792Y0033487D01*
X0032783Y0033637D01*
X0032770Y0033786D01*
X0032753Y0033936D01*
X0032732Y0034085D01*
X0032708Y0034233D01*
X0032680Y0034381D01*
X0032648Y0034528D01*
X0032613Y0034674D01*
X0032573Y0034819D01*
X0032531Y0034963D01*
X0032484Y0035106D01*
X0032434Y0035248D01*
X0032381Y0035389D01*
X0032324Y0035528D01*
X0032264Y0035666D01*
X0032200Y0035802D01*
X0032133Y0035936D01*
X0032062Y0036069D01*
X0031988Y0036200D01*
X0031911Y0036329D01*
X0031830Y0036456D01*
X0031747Y0036581D01*
X0031660Y0036704D01*
X0031571Y0036825D01*
X0031478Y0036943D01*
X0031382Y0037059D01*
X0031284Y0037173D01*
X0031183Y0037284D01*
X0031078Y0037393D01*
X0030972Y0037498D01*
X0030862Y0037602D01*
X0030750Y0037702D01*
X0030636Y0037800D01*
X0030519Y0037894D01*
X0030400Y0037986D01*
X0156800Y0164686D02*
X0156800Y0181686D01*
X0156802Y0181746D01*
X0156807Y0181807D01*
X0156816Y0181866D01*
X0156829Y0181925D01*
X0156845Y0181984D01*
X0156865Y0182041D01*
X0156888Y0182096D01*
X0156915Y0182151D01*
X0156944Y0182203D01*
X0156977Y0182254D01*
X0157013Y0182303D01*
X0157051Y0182349D01*
X0157093Y0182393D01*
X0157137Y0182435D01*
X0157183Y0182473D01*
X0157232Y0182509D01*
X0157283Y0182542D01*
X0157335Y0182571D01*
X0157390Y0182598D01*
X0157445Y0182621D01*
X0157502Y0182641D01*
X0157561Y0182657D01*
X0157620Y0182670D01*
X0157679Y0182679D01*
X0157740Y0182684D01*
X0157800Y0182686D01*
X0165800Y0182686D01*
X0165860Y0182684D01*
X0165921Y0182679D01*
X0165980Y0182670D01*
X0166039Y0182657D01*
X0166098Y0182641D01*
X0166155Y0182621D01*
X0166210Y0182598D01*
X0166265Y0182571D01*
X0166317Y0182542D01*
X0166368Y0182509D01*
X0166417Y0182473D01*
X0166463Y0182435D01*
X0166507Y0182393D01*
X0166549Y0182349D01*
X0166587Y0182303D01*
X0166623Y0182254D01*
X0166656Y0182203D01*
X0166685Y0182151D01*
X0166712Y0182096D01*
X0166735Y0182041D01*
X0166755Y0181984D01*
X0166771Y0181925D01*
X0166784Y0181866D01*
X0166793Y0181807D01*
X0166798Y0181746D01*
X0166800Y0181686D01*
X0166800Y0164686D01*
X0166798Y0164626D01*
X0166793Y0164565D01*
X0166784Y0164506D01*
X0166771Y0164447D01*
X0166755Y0164388D01*
X0166735Y0164331D01*
X0166712Y0164276D01*
X0166685Y0164221D01*
X0166656Y0164169D01*
X0166623Y0164118D01*
X0166587Y0164069D01*
X0166549Y0164023D01*
X0166507Y0163979D01*
X0166463Y0163937D01*
X0166417Y0163899D01*
X0166368Y0163863D01*
X0166317Y0163830D01*
X0166265Y0163801D01*
X0166210Y0163774D01*
X0166155Y0163751D01*
X0166098Y0163731D01*
X0166039Y0163715D01*
X0165980Y0163702D01*
X0165921Y0163693D01*
X0165860Y0163688D01*
X0165800Y0163686D01*
X0157800Y0163686D01*
X0157740Y0163688D01*
X0157679Y0163693D01*
X0157620Y0163702D01*
X0157561Y0163715D01*
X0157502Y0163731D01*
X0157445Y0163751D01*
X0157390Y0163774D01*
X0157335Y0163801D01*
X0157283Y0163830D01*
X0157232Y0163863D01*
X0157183Y0163899D01*
X0157137Y0163937D01*
X0157093Y0163979D01*
X0157051Y0164023D01*
X0157013Y0164069D01*
X0156977Y0164118D01*
X0156944Y0164169D01*
X0156915Y0164221D01*
X0156888Y0164276D01*
X0156865Y0164331D01*
X0156845Y0164388D01*
X0156829Y0164447D01*
X0156816Y0164506D01*
X0156807Y0164565D01*
X0156802Y0164626D01*
X0156800Y0164686D01*
X0161800Y0171686D02*
X0161800Y0172186D01*
X0161800Y0174186D02*
X0161800Y0174686D01*
X0163300Y0098186D02*
X0180300Y0098186D01*
X0180360Y0098184D01*
X0180421Y0098179D01*
X0180480Y0098170D01*
X0180539Y0098157D01*
X0180598Y0098141D01*
X0180655Y0098121D01*
X0180710Y0098098D01*
X0180765Y0098071D01*
X0180817Y0098042D01*
X0180868Y0098009D01*
X0180917Y0097973D01*
X0180963Y0097935D01*
X0181007Y0097893D01*
X0181049Y0097849D01*
X0181087Y0097803D01*
X0181123Y0097754D01*
X0181156Y0097703D01*
X0181185Y0097651D01*
X0181212Y0097596D01*
X0181235Y0097541D01*
X0181255Y0097484D01*
X0181271Y0097425D01*
X0181284Y0097366D01*
X0181293Y0097307D01*
X0181298Y0097246D01*
X0181300Y0097186D01*
X0181300Y0089186D01*
X0181298Y0089126D01*
X0181293Y0089065D01*
X0181284Y0089006D01*
X0181271Y0088947D01*
X0181255Y0088888D01*
X0181235Y0088831D01*
X0181212Y0088776D01*
X0181185Y0088721D01*
X0181156Y0088669D01*
X0181123Y0088618D01*
X0181087Y0088569D01*
X0181049Y0088523D01*
X0181007Y0088479D01*
X0180963Y0088437D01*
X0180917Y0088399D01*
X0180868Y0088363D01*
X0180817Y0088330D01*
X0180765Y0088301D01*
X0180710Y0088274D01*
X0180655Y0088251D01*
X0180598Y0088231D01*
X0180539Y0088215D01*
X0180480Y0088202D01*
X0180421Y0088193D01*
X0180360Y0088188D01*
X0180300Y0088186D01*
X0163300Y0088186D01*
X0163240Y0088188D01*
X0163179Y0088193D01*
X0163120Y0088202D01*
X0163061Y0088215D01*
X0163002Y0088231D01*
X0162945Y0088251D01*
X0162890Y0088274D01*
X0162835Y0088301D01*
X0162783Y0088330D01*
X0162732Y0088363D01*
X0162683Y0088399D01*
X0162637Y0088437D01*
X0162593Y0088479D01*
X0162551Y0088523D01*
X0162513Y0088569D01*
X0162477Y0088618D01*
X0162444Y0088669D01*
X0162415Y0088721D01*
X0162388Y0088776D01*
X0162365Y0088831D01*
X0162345Y0088888D01*
X0162329Y0088947D01*
X0162316Y0089006D01*
X0162307Y0089065D01*
X0162302Y0089126D01*
X0162300Y0089186D01*
X0162300Y0097186D01*
X0162302Y0097246D01*
X0162307Y0097307D01*
X0162316Y0097366D01*
X0162329Y0097425D01*
X0162345Y0097484D01*
X0162365Y0097541D01*
X0162388Y0097596D01*
X0162415Y0097651D01*
X0162444Y0097703D01*
X0162477Y0097754D01*
X0162513Y0097803D01*
X0162551Y0097849D01*
X0162593Y0097893D01*
X0162637Y0097935D01*
X0162683Y0097973D01*
X0162732Y0098009D01*
X0162783Y0098042D01*
X0162835Y0098071D01*
X0162890Y0098098D01*
X0162945Y0098121D01*
X0163002Y0098141D01*
X0163061Y0098157D01*
X0163120Y0098170D01*
X0163179Y0098179D01*
X0163240Y0098184D01*
X0163300Y0098186D01*
X0170300Y0093186D02*
X0170800Y0093186D01*
X0172800Y0093186D02*
X0173300Y0093186D01*
X0197098Y0066562D02*
X0197098Y0064827D01*
X0197098Y0065694D02*
X0199700Y0065694D01*
X0199700Y0063615D02*
X0197098Y0063615D01*
X0197965Y0062748D01*
X0197098Y0061880D01*
X0199700Y0061880D01*
X0199266Y0060668D02*
X0199700Y0060235D01*
X0199700Y0059367D01*
X0199266Y0058934D01*
X0198399Y0059367D02*
X0198399Y0060235D01*
X0198833Y0060668D01*
X0199266Y0060668D01*
X0198399Y0059367D02*
X0197965Y0058934D01*
X0197531Y0058934D01*
X0197098Y0059367D01*
X0197098Y0060235D01*
X0197531Y0060668D01*
X0200134Y0057722D02*
X0200134Y0055987D01*
X0199266Y0054775D02*
X0199700Y0054342D01*
X0199700Y0053041D01*
X0197098Y0053041D01*
X0197098Y0054342D01*
X0197531Y0054775D01*
X0197965Y0054775D01*
X0198399Y0054342D01*
X0198399Y0053041D01*
X0198399Y0051829D02*
X0198399Y0050094D01*
X0199700Y0048997D02*
X0199700Y0048130D01*
X0199700Y0048563D02*
X0197098Y0048563D01*
X0197098Y0048130D02*
X0197098Y0048997D01*
X0197098Y0046918D02*
X0199700Y0046918D01*
X0197098Y0045183D01*
X0199700Y0045183D01*
X0199700Y0044086D02*
X0199700Y0043219D01*
X0199700Y0043653D02*
X0197098Y0043653D01*
X0197098Y0044086D02*
X0197098Y0043219D01*
X0197098Y0042007D02*
X0199700Y0042007D01*
X0199700Y0040272D02*
X0197098Y0040272D01*
X0197965Y0041140D01*
X0197098Y0042007D01*
X0200134Y0039061D02*
X0200134Y0037326D01*
X0199266Y0036114D02*
X0199700Y0035680D01*
X0199700Y0034379D01*
X0197098Y0034379D01*
X0197098Y0035680D01*
X0197531Y0036114D01*
X0197965Y0036114D01*
X0198399Y0035680D01*
X0198399Y0034379D01*
X0198833Y0033168D02*
X0198399Y0032734D01*
X0198399Y0031867D01*
X0197965Y0031433D01*
X0197531Y0031433D01*
X0197098Y0031867D01*
X0197098Y0032734D01*
X0197531Y0033168D01*
X0198833Y0033168D02*
X0199266Y0033168D01*
X0199700Y0032734D01*
X0199700Y0031867D01*
X0199266Y0031433D01*
X0199266Y0030221D02*
X0197098Y0030221D01*
X0197098Y0028486D02*
X0199266Y0028486D01*
X0199700Y0028920D01*
X0199700Y0029787D01*
X0199266Y0030221D01*
X0198399Y0035680D02*
X0198833Y0036114D01*
X0199266Y0036114D01*
X0198399Y0054342D02*
X0198833Y0054775D01*
X0199266Y0054775D01*
X0077800Y0199686D02*
X0076800Y0199686D01*
X0076300Y0200186D01*
X0067300Y0200186D01*
X0066800Y0199686D01*
X0065800Y0199686D01*
X0065740Y0199688D01*
X0065679Y0199693D01*
X0065620Y0199702D01*
X0065561Y0199715D01*
X0065502Y0199731D01*
X0065445Y0199751D01*
X0065390Y0199774D01*
X0065335Y0199801D01*
X0065283Y0199830D01*
X0065232Y0199863D01*
X0065183Y0199899D01*
X0065137Y0199937D01*
X0065093Y0199979D01*
X0065051Y0200023D01*
X0065013Y0200069D01*
X0064977Y0200118D01*
X0064944Y0200169D01*
X0064915Y0200221D01*
X0064888Y0200276D01*
X0064865Y0200331D01*
X0064845Y0200388D01*
X0064829Y0200447D01*
X0064816Y0200506D01*
X0064807Y0200565D01*
X0064802Y0200626D01*
X0064800Y0200686D01*
X0064800Y0205686D02*
X0064802Y0205746D01*
X0064807Y0205807D01*
X0064816Y0205866D01*
X0064829Y0205925D01*
X0064845Y0205984D01*
X0064865Y0206041D01*
X0064888Y0206096D01*
X0064915Y0206151D01*
X0064944Y0206203D01*
X0064977Y0206254D01*
X0065013Y0206303D01*
X0065051Y0206349D01*
X0065093Y0206393D01*
X0065137Y0206435D01*
X0065183Y0206473D01*
X0065232Y0206509D01*
X0065283Y0206542D01*
X0065335Y0206571D01*
X0065390Y0206598D01*
X0065445Y0206621D01*
X0065502Y0206641D01*
X0065561Y0206657D01*
X0065620Y0206670D01*
X0065679Y0206679D01*
X0065740Y0206684D01*
X0065800Y0206686D01*
X0066800Y0206686D01*
X0067300Y0206186D01*
X0076300Y0206186D01*
X0076800Y0206686D01*
X0077800Y0206686D01*
X0077860Y0206684D01*
X0077921Y0206679D01*
X0077980Y0206670D01*
X0078039Y0206657D01*
X0078098Y0206641D01*
X0078155Y0206621D01*
X0078210Y0206598D01*
X0078265Y0206571D01*
X0078317Y0206542D01*
X0078368Y0206509D01*
X0078417Y0206473D01*
X0078463Y0206435D01*
X0078507Y0206393D01*
X0078549Y0206349D01*
X0078587Y0206303D01*
X0078623Y0206254D01*
X0078656Y0206203D01*
X0078685Y0206151D01*
X0078712Y0206096D01*
X0078735Y0206041D01*
X0078755Y0205984D01*
X0078771Y0205925D01*
X0078784Y0205866D01*
X0078793Y0205807D01*
X0078798Y0205746D01*
X0078800Y0205686D01*
X0078800Y0200686D02*
X0078798Y0200626D01*
X0078793Y0200565D01*
X0078784Y0200506D01*
X0078771Y0200447D01*
X0078755Y0200388D01*
X0078735Y0200331D01*
X0078712Y0200276D01*
X0078685Y0200221D01*
X0078656Y0200169D01*
X0078623Y0200118D01*
X0078587Y0200069D01*
X0078549Y0200023D01*
X0078507Y0199979D01*
X0078463Y0199937D01*
X0078417Y0199899D01*
X0078368Y0199863D01*
X0078317Y0199830D01*
X0078265Y0199801D01*
X0078210Y0199774D01*
X0078155Y0199751D01*
X0078098Y0199731D01*
X0078039Y0199715D01*
X0077980Y0199702D01*
X0077921Y0199693D01*
X0077860Y0199688D01*
X0077800Y0199686D01*
D12*
X0158800Y0174186D02*
X0161800Y0174186D01*
X0164800Y0174186D01*
X0164800Y0172186D02*
X0161800Y0172186D01*
X0158800Y0172186D01*
X0170800Y0096186D02*
X0170800Y0093186D01*
X0170800Y0090186D01*
X0172800Y0090186D02*
X0172800Y0093186D01*
X0172800Y0096186D01*
X0172800Y0046186D02*
X0172800Y0043186D01*
X0172800Y0040186D01*
X0170800Y0040186D02*
X0170800Y0043186D01*
X0170800Y0046186D01*
X0132831Y0040133D02*
X0132662Y0040034D01*
X0132496Y0039930D01*
X0132332Y0039823D01*
X0132171Y0039712D01*
X0132013Y0039597D01*
X0131858Y0039478D01*
X0131705Y0039355D01*
X0131556Y0039229D01*
X0131410Y0039099D01*
X0131267Y0038965D01*
X0131127Y0038828D01*
X0130991Y0038688D01*
X0130858Y0038544D01*
X0130729Y0038397D01*
X0130603Y0038247D01*
X0130482Y0038094D01*
X0130363Y0037938D01*
X0130249Y0037779D01*
X0130139Y0037618D01*
X0130033Y0037453D01*
X0129930Y0037287D01*
X0129832Y0037117D01*
X0129738Y0036946D01*
X0129648Y0036772D01*
X0129563Y0036596D01*
X0129481Y0036418D01*
X0129405Y0036238D01*
X0129332Y0036056D01*
X0129264Y0035873D01*
X0129201Y0035688D01*
X0129142Y0035501D01*
X0129088Y0035313D01*
X0129038Y0035124D01*
X0128993Y0034934D01*
X0128953Y0034742D01*
X0128917Y0034550D01*
X0128886Y0034357D01*
X0128860Y0034163D01*
X0128838Y0033968D01*
X0128822Y0033773D01*
X0128810Y0033578D01*
X0128802Y0033382D01*
X0128800Y0033187D01*
X0140565Y0040245D02*
X0140733Y0040152D01*
X0140899Y0040056D01*
X0141063Y0039956D01*
X0141224Y0039851D01*
X0141383Y0039743D01*
X0141539Y0039631D01*
X0141693Y0039515D01*
X0141843Y0039396D01*
X0141991Y0039273D01*
X0142136Y0039147D01*
X0142277Y0039017D01*
X0142416Y0038884D01*
X0142551Y0038747D01*
X0142683Y0038607D01*
X0142811Y0038465D01*
X0142936Y0038319D01*
X0143058Y0038170D01*
X0143176Y0038018D01*
X0143290Y0037864D01*
X0143400Y0037706D01*
X0143507Y0037547D01*
X0143610Y0037384D01*
X0143709Y0037219D01*
X0143804Y0037052D01*
X0143894Y0036883D01*
X0143981Y0036712D01*
X0144064Y0036538D01*
X0144142Y0036363D01*
X0144216Y0036185D01*
X0144286Y0036006D01*
X0144352Y0035826D01*
X0144413Y0035644D01*
X0144470Y0035460D01*
X0144522Y0035275D01*
X0144570Y0035089D01*
X0144614Y0034902D01*
X0144653Y0034714D01*
X0144687Y0034525D01*
X0144717Y0034335D01*
X0144742Y0034145D01*
X0144763Y0033954D01*
X0144779Y0033762D01*
X0144791Y0033570D01*
X0144798Y0033378D01*
X0144800Y0033186D01*
X0131632Y0027079D02*
X0131486Y0027206D01*
X0131344Y0027335D01*
X0131204Y0027469D01*
X0131068Y0027605D01*
X0130935Y0027745D01*
X0130805Y0027888D01*
X0130679Y0028035D01*
X0130557Y0028184D01*
X0130438Y0028336D01*
X0130323Y0028491D01*
X0130211Y0028648D01*
X0130104Y0028808D01*
X0130000Y0028971D01*
X0129901Y0029137D01*
X0129805Y0029304D01*
X0129713Y0029474D01*
X0129626Y0029646D01*
X0129542Y0029820D01*
X0129463Y0029996D01*
X0129389Y0030174D01*
X0129318Y0030354D01*
X0129252Y0030535D01*
X0129190Y0030718D01*
X0129133Y0030902D01*
X0129080Y0031088D01*
X0129032Y0031275D01*
X0128988Y0031463D01*
X0128949Y0031652D01*
X0128914Y0031842D01*
X0128884Y0032032D01*
X0128858Y0032223D01*
X0128837Y0032415D01*
X0128821Y0032608D01*
X0128809Y0032800D01*
X0128802Y0032993D01*
X0128800Y0033186D01*
X0141922Y0027040D02*
X0142070Y0027167D01*
X0142215Y0027297D01*
X0142356Y0027430D01*
X0142495Y0027567D01*
X0142630Y0027707D01*
X0142761Y0027851D01*
X0142889Y0027998D01*
X0143014Y0028147D01*
X0143135Y0028300D01*
X0143252Y0028455D01*
X0143365Y0028614D01*
X0143474Y0028775D01*
X0143579Y0028939D01*
X0143681Y0029105D01*
X0143778Y0029274D01*
X0143871Y0029444D01*
X0143960Y0029618D01*
X0144045Y0029793D01*
X0144125Y0029970D01*
X0144201Y0030149D01*
X0144273Y0030330D01*
X0144340Y0030513D01*
X0144403Y0030697D01*
X0144461Y0030883D01*
X0144515Y0031070D01*
X0144564Y0031258D01*
X0144609Y0031448D01*
X0144649Y0031638D01*
X0144684Y0031830D01*
X0144715Y0032022D01*
X0144741Y0032215D01*
X0144762Y0032409D01*
X0144779Y0032603D01*
X0144791Y0032797D01*
X0144798Y0032991D01*
X0144800Y0033186D01*
X0064800Y0102186D02*
X0061800Y0102186D01*
X0058800Y0102186D01*
X0058800Y0104186D02*
X0061800Y0104186D01*
X0064800Y0104186D01*
X0022831Y0040133D02*
X0022662Y0040034D01*
X0022496Y0039930D01*
X0022332Y0039823D01*
X0022171Y0039712D01*
X0022013Y0039597D01*
X0021858Y0039478D01*
X0021705Y0039355D01*
X0021556Y0039229D01*
X0021410Y0039099D01*
X0021267Y0038965D01*
X0021127Y0038828D01*
X0020991Y0038688D01*
X0020858Y0038544D01*
X0020729Y0038397D01*
X0020603Y0038247D01*
X0020482Y0038094D01*
X0020363Y0037938D01*
X0020249Y0037779D01*
X0020139Y0037618D01*
X0020033Y0037453D01*
X0019930Y0037287D01*
X0019832Y0037117D01*
X0019738Y0036946D01*
X0019648Y0036772D01*
X0019563Y0036596D01*
X0019481Y0036418D01*
X0019405Y0036238D01*
X0019332Y0036056D01*
X0019264Y0035873D01*
X0019201Y0035688D01*
X0019142Y0035501D01*
X0019088Y0035313D01*
X0019038Y0035124D01*
X0018993Y0034934D01*
X0018953Y0034742D01*
X0018917Y0034550D01*
X0018886Y0034357D01*
X0018860Y0034163D01*
X0018838Y0033968D01*
X0018822Y0033773D01*
X0018810Y0033578D01*
X0018802Y0033382D01*
X0018800Y0033187D01*
X0030565Y0040245D02*
X0030733Y0040152D01*
X0030899Y0040056D01*
X0031063Y0039956D01*
X0031224Y0039851D01*
X0031383Y0039743D01*
X0031539Y0039631D01*
X0031693Y0039515D01*
X0031843Y0039396D01*
X0031991Y0039273D01*
X0032136Y0039147D01*
X0032277Y0039017D01*
X0032416Y0038884D01*
X0032551Y0038747D01*
X0032683Y0038607D01*
X0032811Y0038465D01*
X0032936Y0038319D01*
X0033058Y0038170D01*
X0033176Y0038018D01*
X0033290Y0037864D01*
X0033400Y0037706D01*
X0033507Y0037547D01*
X0033610Y0037384D01*
X0033709Y0037219D01*
X0033804Y0037052D01*
X0033894Y0036883D01*
X0033981Y0036712D01*
X0034064Y0036538D01*
X0034142Y0036363D01*
X0034216Y0036185D01*
X0034286Y0036006D01*
X0034352Y0035826D01*
X0034413Y0035644D01*
X0034470Y0035460D01*
X0034522Y0035275D01*
X0034570Y0035089D01*
X0034614Y0034902D01*
X0034653Y0034714D01*
X0034687Y0034525D01*
X0034717Y0034335D01*
X0034742Y0034145D01*
X0034763Y0033954D01*
X0034779Y0033762D01*
X0034791Y0033570D01*
X0034798Y0033378D01*
X0034800Y0033186D01*
X0021632Y0027079D02*
X0021486Y0027206D01*
X0021344Y0027335D01*
X0021204Y0027469D01*
X0021068Y0027605D01*
X0020935Y0027745D01*
X0020805Y0027888D01*
X0020679Y0028035D01*
X0020557Y0028184D01*
X0020438Y0028336D01*
X0020323Y0028491D01*
X0020211Y0028648D01*
X0020104Y0028808D01*
X0020000Y0028971D01*
X0019901Y0029137D01*
X0019805Y0029304D01*
X0019713Y0029474D01*
X0019626Y0029646D01*
X0019542Y0029820D01*
X0019463Y0029996D01*
X0019389Y0030174D01*
X0019318Y0030354D01*
X0019252Y0030535D01*
X0019190Y0030718D01*
X0019133Y0030902D01*
X0019080Y0031088D01*
X0019032Y0031275D01*
X0018988Y0031463D01*
X0018949Y0031652D01*
X0018914Y0031842D01*
X0018884Y0032032D01*
X0018858Y0032223D01*
X0018837Y0032415D01*
X0018821Y0032608D01*
X0018809Y0032800D01*
X0018802Y0032993D01*
X0018800Y0033186D01*
X0031922Y0027040D02*
X0032070Y0027167D01*
X0032215Y0027297D01*
X0032356Y0027430D01*
X0032495Y0027567D01*
X0032630Y0027707D01*
X0032761Y0027851D01*
X0032889Y0027998D01*
X0033014Y0028147D01*
X0033135Y0028300D01*
X0033252Y0028455D01*
X0033365Y0028614D01*
X0033474Y0028775D01*
X0033579Y0028939D01*
X0033681Y0029105D01*
X0033778Y0029274D01*
X0033871Y0029444D01*
X0033960Y0029618D01*
X0034045Y0029793D01*
X0034125Y0029970D01*
X0034201Y0030149D01*
X0034273Y0030330D01*
X0034340Y0030513D01*
X0034403Y0030697D01*
X0034461Y0030883D01*
X0034515Y0031070D01*
X0034564Y0031258D01*
X0034609Y0031448D01*
X0034649Y0031638D01*
X0034684Y0031830D01*
X0034715Y0032022D01*
X0034741Y0032215D01*
X0034762Y0032409D01*
X0034779Y0032603D01*
X0034791Y0032797D01*
X0034798Y0032991D01*
X0034800Y0033186D01*
D13*
X0041648Y0039017D02*
X0043233Y0039017D01*
X0043550Y0039333D01*
X0043550Y0039967D01*
X0043233Y0040284D01*
X0041648Y0040284D01*
X0041965Y0041226D02*
X0042282Y0041226D01*
X0042599Y0041543D01*
X0042599Y0042177D01*
X0042916Y0042494D01*
X0043233Y0042494D01*
X0043550Y0042177D01*
X0043550Y0041543D01*
X0043233Y0041226D01*
X0041965Y0041226D02*
X0041648Y0041543D01*
X0041648Y0042177D01*
X0041965Y0042494D01*
X0041648Y0043436D02*
X0043550Y0043436D01*
X0043550Y0044704D01*
X0043550Y0045646D02*
X0041648Y0045646D01*
X0041648Y0046597D01*
X0041965Y0046914D01*
X0042599Y0046914D01*
X0042916Y0046597D01*
X0042916Y0045646D01*
X0042916Y0046280D02*
X0043550Y0046914D01*
X0041648Y0044704D02*
X0041648Y0043436D01*
X0042599Y0043436D02*
X0042599Y0044070D01*
X0033050Y0024335D02*
X0028546Y0024335D01*
X0028546Y0021332D02*
X0033050Y0024335D01*
X0033050Y0021332D02*
X0028546Y0021332D01*
X0028546Y0019731D02*
X0028546Y0016728D01*
X0033050Y0016728D01*
X0033050Y0019731D01*
X0030798Y0018230D02*
X0030798Y0016728D01*
X0033050Y0015127D02*
X0033050Y0012125D01*
X0028546Y0012125D01*
X0028546Y0015127D01*
X0030798Y0013626D02*
X0030798Y0012125D01*
X0030798Y0010523D02*
X0029297Y0010523D01*
X0028546Y0009773D01*
X0028546Y0007521D01*
X0033050Y0007521D01*
X0031549Y0007521D02*
X0031549Y0009773D01*
X0030798Y0010523D01*
X0031549Y0009022D02*
X0033050Y0010523D01*
X0032299Y0005919D02*
X0030798Y0005919D01*
X0030798Y0004418D01*
X0029297Y0005919D02*
X0028546Y0005169D01*
X0028546Y0003667D01*
X0029297Y0002917D01*
X0032299Y0002917D01*
X0033050Y0003667D01*
X0033050Y0005169D01*
X0032299Y0005919D01*
X0051797Y0094436D02*
X0054799Y0094436D01*
X0055550Y0095187D01*
X0055550Y0096688D01*
X0054799Y0097439D01*
X0054799Y0099040D02*
X0055550Y0099040D01*
X0054799Y0099040D02*
X0051797Y0102043D01*
X0051046Y0102043D01*
X0051046Y0099040D01*
X0051797Y0097439D02*
X0051046Y0096688D01*
X0051046Y0095187D01*
X0051797Y0094436D01*
X0068046Y0098240D02*
X0069547Y0096738D01*
X0068046Y0098240D02*
X0072550Y0098240D01*
X0072550Y0099741D02*
X0072550Y0096738D01*
X0072550Y0095187D02*
X0072550Y0094436D01*
X0071799Y0094436D01*
X0071799Y0095187D01*
X0072550Y0095187D01*
X0071799Y0101342D02*
X0069547Y0101342D01*
X0071799Y0101342D02*
X0072550Y0102093D01*
X0072550Y0104345D01*
X0069547Y0104345D01*
X0070298Y0105946D02*
X0070298Y0107447D01*
X0068046Y0105946D02*
X0068046Y0108949D01*
X0068046Y0105946D02*
X0072550Y0105946D01*
X0127322Y0087940D02*
X0127322Y0083436D01*
X0130325Y0083436D02*
X0130325Y0087940D01*
X0128824Y0086439D01*
X0127322Y0087940D01*
X0131926Y0087190D02*
X0131926Y0084187D01*
X0132677Y0083436D01*
X0134178Y0083436D01*
X0134929Y0084187D01*
X0136530Y0084938D02*
X0138782Y0084938D01*
X0139533Y0085688D01*
X0139533Y0087190D01*
X0138782Y0087940D01*
X0136530Y0087940D01*
X0136530Y0083436D01*
X0134929Y0087190D02*
X0134178Y0087940D01*
X0132677Y0087940D01*
X0131926Y0087190D01*
X0141134Y0086439D02*
X0142636Y0087940D01*
X0142636Y0083436D01*
X0144137Y0083436D02*
X0141134Y0083436D01*
X0145738Y0083436D02*
X0145738Y0084187D01*
X0148741Y0087190D01*
X0148741Y0087940D01*
X0145738Y0087940D01*
X0150342Y0087190D02*
X0150342Y0084187D01*
X0153345Y0087190D01*
X0153345Y0084187D01*
X0152594Y0083436D01*
X0151093Y0083436D01*
X0150342Y0084187D01*
X0150342Y0087190D02*
X0151093Y0087940D01*
X0152594Y0087940D01*
X0153345Y0087190D01*
X0154946Y0087190D02*
X0155697Y0087940D01*
X0157198Y0087940D01*
X0157949Y0087190D01*
X0157949Y0086439D01*
X0154946Y0083436D01*
X0157949Y0083436D01*
X0156447Y0080440D02*
X0156447Y0075936D01*
X0154946Y0075936D02*
X0157949Y0075936D01*
X0154946Y0078939D02*
X0156447Y0080440D01*
X0153345Y0079690D02*
X0152594Y0080440D01*
X0151093Y0080440D01*
X0150342Y0079690D01*
X0150342Y0078939D01*
X0151093Y0078188D01*
X0152594Y0078188D01*
X0153345Y0077438D01*
X0153345Y0076687D01*
X0152594Y0075936D01*
X0151093Y0075936D01*
X0150342Y0076687D01*
X0148741Y0076687D02*
X0148741Y0080440D01*
X0145738Y0080440D02*
X0145738Y0076687D01*
X0146489Y0075936D01*
X0147990Y0075936D01*
X0148741Y0076687D01*
X0151843Y0075186D02*
X0151843Y0081191D01*
X0161348Y0084186D02*
X0162927Y0084186D01*
X0163554Y0089686D02*
X0180046Y0089686D01*
X0178698Y0086940D02*
X0177197Y0086940D01*
X0176446Y0086190D01*
X0174845Y0086190D02*
X0174094Y0086940D01*
X0172593Y0086940D01*
X0171842Y0086190D01*
X0171842Y0083187D01*
X0172593Y0082436D01*
X0174094Y0082436D01*
X0174845Y0083187D01*
X0176446Y0083187D02*
X0177197Y0082436D01*
X0178698Y0082436D01*
X0179449Y0083187D01*
X0179449Y0083938D01*
X0178698Y0084688D01*
X0177947Y0084688D01*
X0178698Y0084688D02*
X0179449Y0085439D01*
X0179449Y0086190D01*
X0178698Y0086940D01*
X0180673Y0084186D02*
X0182252Y0084186D01*
X0172927Y0084186D02*
X0170673Y0084186D01*
X0180046Y0089687D02*
X0180199Y0089488D01*
X0180347Y0089286D01*
X0180490Y0089081D01*
X0180628Y0088872D01*
X0180761Y0088660D01*
X0180889Y0088445D01*
X0181011Y0088227D01*
X0181129Y0088006D01*
X0181241Y0087782D01*
X0181348Y0087556D01*
X0181449Y0087327D01*
X0181545Y0087096D01*
X0181636Y0086862D01*
X0181721Y0086627D01*
X0181800Y0086389D01*
X0181873Y0086150D01*
X0181941Y0085909D01*
X0182003Y0085667D01*
X0182059Y0085423D01*
X0182110Y0085177D01*
X0182154Y0084931D01*
X0182193Y0084684D01*
X0182225Y0084436D01*
X0182252Y0084187D01*
X0168704Y0073153D02*
X0168462Y0073231D01*
X0168222Y0073315D01*
X0167984Y0073404D01*
X0167748Y0073500D01*
X0167514Y0073601D01*
X0167283Y0073707D01*
X0167055Y0073820D01*
X0166829Y0073937D01*
X0166606Y0074060D01*
X0166387Y0074189D01*
X0166170Y0074323D01*
X0165957Y0074462D01*
X0165747Y0074606D01*
X0165541Y0074755D01*
X0165339Y0074909D01*
X0165140Y0075068D01*
X0164945Y0075232D01*
X0164754Y0075401D01*
X0164568Y0075574D01*
X0164385Y0075751D01*
X0164207Y0075933D01*
X0164034Y0076119D01*
X0163865Y0076310D01*
X0163701Y0076504D01*
X0163541Y0076702D01*
X0163386Y0076904D01*
X0163237Y0077110D01*
X0163092Y0077319D01*
X0162952Y0077532D01*
X0162818Y0077748D01*
X0162689Y0077968D01*
X0162565Y0078190D01*
X0162446Y0078415D01*
X0162334Y0078643D01*
X0162226Y0078874D01*
X0162125Y0079107D01*
X0162029Y0079343D01*
X0161938Y0079581D01*
X0161854Y0079821D01*
X0161775Y0080063D01*
X0161702Y0080307D01*
X0161636Y0080553D01*
X0161575Y0080800D01*
X0161520Y0081048D01*
X0161471Y0081298D01*
X0161428Y0081549D01*
X0161392Y0081801D01*
X0161361Y0082053D01*
X0161337Y0082307D01*
X0161319Y0082560D01*
X0161307Y0082815D01*
X0161301Y0083069D01*
X0161301Y0083324D01*
X0161307Y0083578D01*
X0161320Y0083832D01*
X0161339Y0084086D01*
X0161364Y0084339D01*
X0161395Y0084592D01*
X0161432Y0084844D01*
X0161475Y0085094D01*
X0161524Y0085344D01*
X0161579Y0085593D01*
X0161641Y0085840D01*
X0161708Y0086085D01*
X0161781Y0086329D01*
X0161860Y0086571D01*
X0161945Y0086810D01*
X0162036Y0087048D01*
X0162133Y0087284D01*
X0162235Y0087517D01*
X0162343Y0087747D01*
X0162456Y0087975D01*
X0162575Y0088200D01*
X0162699Y0088422D01*
X0162828Y0088641D01*
X0162963Y0088857D01*
X0163103Y0089070D01*
X0163249Y0089279D01*
X0163399Y0089484D01*
X0163554Y0089686D01*
X0164936Y0099436D02*
X0165687Y0099436D01*
X0165687Y0100187D01*
X0164936Y0100187D01*
X0164936Y0099436D01*
X0167238Y0099436D02*
X0170241Y0099436D01*
X0168739Y0099436D02*
X0168739Y0103940D01*
X0167238Y0102439D01*
X0171842Y0102439D02*
X0171842Y0100187D01*
X0172593Y0099436D01*
X0174845Y0099436D01*
X0174845Y0102439D01*
X0176446Y0101688D02*
X0177947Y0101688D01*
X0176446Y0099436D02*
X0176446Y0103940D01*
X0179449Y0103940D01*
X0182252Y0084186D02*
X0182274Y0083931D01*
X0182289Y0083675D01*
X0182297Y0083419D01*
X0182300Y0083162D01*
X0182296Y0082906D01*
X0182286Y0082650D01*
X0182270Y0082394D01*
X0182248Y0082139D01*
X0182219Y0081884D01*
X0182184Y0081630D01*
X0182143Y0081377D01*
X0182096Y0081125D01*
X0182042Y0080875D01*
X0181983Y0080626D01*
X0181917Y0080378D01*
X0181846Y0080132D01*
X0181768Y0079887D01*
X0181685Y0079645D01*
X0181596Y0079405D01*
X0181500Y0079167D01*
X0181399Y0078931D01*
X0181293Y0078698D01*
X0181180Y0078468D01*
X0181062Y0078240D01*
X0180939Y0078016D01*
X0180810Y0077794D01*
X0180676Y0077576D01*
X0180536Y0077361D01*
X0180391Y0077150D01*
X0180241Y0076942D01*
X0180087Y0076738D01*
X0179927Y0076537D01*
X0179762Y0076341D01*
X0179593Y0076149D01*
X0179418Y0075960D01*
X0179240Y0075777D01*
X0179057Y0075597D01*
X0178869Y0075422D01*
X0178678Y0075252D01*
X0178482Y0075087D01*
X0178282Y0074926D01*
X0178079Y0074770D01*
X0177872Y0074620D01*
X0177661Y0074474D01*
X0177446Y0074333D01*
X0177229Y0074198D01*
X0177008Y0074068D01*
X0176784Y0073944D01*
X0176557Y0073825D01*
X0176327Y0073712D01*
X0176094Y0073604D01*
X0175859Y0073502D01*
X0175621Y0073406D01*
X0175382Y0073316D01*
X0175140Y0073231D01*
X0174896Y0073153D01*
X0176446Y0053940D02*
X0179449Y0053940D01*
X0177947Y0051688D02*
X0176446Y0051688D01*
X0174845Y0052439D02*
X0174845Y0049436D01*
X0172593Y0049436D01*
X0171842Y0050187D01*
X0171842Y0052439D01*
X0170241Y0049436D02*
X0167238Y0049436D01*
X0168739Y0049436D02*
X0168739Y0053940D01*
X0167238Y0052439D01*
X0165687Y0050187D02*
X0165687Y0049436D01*
X0164936Y0049436D01*
X0164936Y0050187D01*
X0165687Y0050187D01*
X0176446Y0049436D02*
X0176446Y0053940D01*
X0178698Y0036940D02*
X0176446Y0034688D01*
X0179449Y0034688D01*
X0178698Y0032436D02*
X0178698Y0036940D01*
X0174845Y0036190D02*
X0174094Y0036940D01*
X0172593Y0036940D01*
X0171842Y0036190D01*
X0171842Y0033187D01*
X0172593Y0032436D01*
X0174094Y0032436D01*
X0174845Y0033187D01*
X0143050Y0023584D02*
X0143050Y0021332D01*
X0138546Y0021332D01*
X0138546Y0023584D01*
X0139297Y0024335D01*
X0142299Y0024335D01*
X0143050Y0023584D01*
X0143050Y0019731D02*
X0143050Y0016728D01*
X0138546Y0016728D01*
X0138546Y0019731D01*
X0140798Y0018230D02*
X0140798Y0016728D01*
X0140798Y0015127D02*
X0139297Y0015127D01*
X0138546Y0014376D01*
X0138546Y0012125D01*
X0143050Y0012125D01*
X0141549Y0012125D02*
X0141549Y0014376D01*
X0140798Y0015127D01*
X0141549Y0013626D02*
X0143050Y0015127D01*
X0202133Y0159017D02*
X0202450Y0159333D01*
X0202450Y0159650D01*
X0202133Y0159967D01*
X0200548Y0159967D01*
X0200548Y0159650D02*
X0200548Y0160284D01*
X0200865Y0161226D02*
X0200548Y0161543D01*
X0200548Y0162177D01*
X0200865Y0162494D01*
X0201182Y0162494D01*
X0201499Y0162177D01*
X0201816Y0162494D01*
X0202133Y0162494D01*
X0202450Y0162177D01*
X0202450Y0161543D01*
X0202133Y0161226D01*
X0201499Y0161860D02*
X0201499Y0162177D01*
X0172550Y0169375D02*
X0172550Y0170876D01*
X0171799Y0171627D01*
X0172550Y0173228D02*
X0172550Y0176231D01*
X0172550Y0174730D02*
X0168046Y0174730D01*
X0169547Y0173228D01*
X0168797Y0171627D02*
X0168046Y0170876D01*
X0168046Y0169375D01*
X0168797Y0168625D01*
X0171799Y0168625D01*
X0172550Y0169375D01*
X0171799Y0177832D02*
X0168797Y0177832D01*
X0168046Y0178583D01*
X0168046Y0180084D01*
X0168797Y0180835D01*
X0171799Y0177832D01*
X0172550Y0178583D01*
X0172550Y0180084D01*
X0171799Y0180835D01*
X0168797Y0180835D01*
X0155550Y0177832D02*
X0151046Y0177832D01*
X0151046Y0180835D01*
X0153298Y0179334D02*
X0153298Y0177832D01*
X0152547Y0176231D02*
X0155550Y0176231D01*
X0155550Y0173979D01*
X0154799Y0173228D01*
X0152547Y0173228D01*
X0155550Y0171627D02*
X0155550Y0168625D01*
X0155550Y0170126D02*
X0151046Y0170126D01*
X0152547Y0168625D01*
X0154799Y0167073D02*
X0155550Y0167073D01*
X0155550Y0166323D01*
X0154799Y0166323D01*
X0154799Y0167073D01*
X0192947Y0205536D02*
X0193264Y0205536D01*
X0193581Y0205853D01*
X0193581Y0207438D01*
X0193264Y0207438D02*
X0193898Y0207438D01*
X0194840Y0206487D02*
X0196108Y0206487D01*
X0195791Y0205536D02*
X0195791Y0207438D01*
X0194840Y0206487D01*
X0192947Y0205536D02*
X0192630Y0205853D01*
X0101226Y0189436D02*
X0098223Y0189436D01*
X0099724Y0189436D02*
X0099724Y0193940D01*
X0098223Y0192439D01*
X0096622Y0193190D02*
X0095871Y0193940D01*
X0094370Y0193940D01*
X0093619Y0193190D01*
X0093619Y0190187D01*
X0094370Y0189436D01*
X0095871Y0189436D01*
X0096622Y0190187D01*
X0092051Y0189436D02*
X0090550Y0189436D01*
X0091301Y0189436D02*
X0091301Y0193940D01*
X0092051Y0193940D02*
X0090550Y0193940D01*
X0026633Y0189938D02*
X0025365Y0189938D01*
X0025999Y0189938D02*
X0025999Y0188036D01*
X0024423Y0188036D02*
X0023155Y0188036D01*
X0023155Y0189938D01*
X0024423Y0189938D01*
X0023789Y0188987D02*
X0023155Y0188987D01*
X0022213Y0188670D02*
X0022213Y0188353D01*
X0021896Y0188036D01*
X0021262Y0188036D01*
X0020945Y0188353D01*
X0021262Y0188987D02*
X0021896Y0188987D01*
X0022213Y0188670D01*
X0022213Y0189621D02*
X0021896Y0189938D01*
X0021262Y0189938D01*
X0020945Y0189621D01*
X0020945Y0189304D01*
X0021262Y0188987D01*
X0020003Y0188036D02*
X0018735Y0188036D01*
X0018735Y0189938D01*
X0020003Y0189938D01*
X0019369Y0188987D02*
X0018735Y0188987D01*
X0017793Y0188987D02*
X0017476Y0188670D01*
X0016525Y0188670D01*
X0016525Y0188036D02*
X0016525Y0189938D01*
X0017476Y0189938D01*
X0017793Y0189621D01*
X0017793Y0188987D01*
X0017159Y0188670D02*
X0017793Y0188036D01*
X0014450Y0162494D02*
X0014450Y0161226D01*
X0013182Y0162494D01*
X0012865Y0162494D01*
X0012548Y0162177D01*
X0012548Y0161543D01*
X0012865Y0161226D01*
X0012548Y0160284D02*
X0012548Y0159650D01*
X0012548Y0159967D02*
X0014133Y0159967D01*
X0014450Y0159650D01*
X0014450Y0159333D01*
X0014133Y0159017D01*
D14*
X0011800Y0160686D02*
X0011800Y0155686D01*
X0009300Y0153186D01*
X0011800Y0150686D01*
X0011800Y0145686D01*
X0009300Y0143186D01*
X0011800Y0140686D01*
X0011800Y0135686D01*
X0009300Y0133186D01*
X0011800Y0130686D01*
X0011800Y0125686D01*
X0009300Y0123186D01*
X0011800Y0120686D01*
X0011800Y0115686D01*
X0009300Y0113186D01*
X0011800Y0110686D01*
X0011800Y0105686D01*
X0009300Y0103186D01*
X0011800Y0100686D01*
X0011800Y0095686D01*
X0009300Y0093186D01*
X0011800Y0090686D01*
X0011800Y0085686D01*
X0009300Y0083186D01*
X0004300Y0083186D01*
X0001800Y0085686D01*
X0001800Y0090686D01*
X0004300Y0093186D01*
X0001800Y0095686D01*
X0001800Y0100686D01*
X0004300Y0103186D01*
X0001800Y0105686D01*
X0001800Y0110686D01*
X0004300Y0113186D01*
X0001800Y0115686D01*
X0001800Y0120686D01*
X0004300Y0123186D01*
X0001800Y0125686D01*
X0001800Y0130686D01*
X0004300Y0133186D01*
X0001800Y0135686D01*
X0001800Y0140686D01*
X0004300Y0143186D01*
X0001800Y0145686D01*
X0001800Y0150686D01*
X0004300Y0153186D01*
X0001800Y0155686D01*
X0001800Y0160686D01*
X0004300Y0163186D01*
X0009300Y0163186D01*
X0011800Y0160686D01*
X0013300Y0191186D02*
X0030300Y0191186D01*
X0033800Y0199139D02*
X0033800Y0207186D01*
X0030300Y0215186D02*
X0013300Y0215186D01*
X0009800Y0207186D02*
X0009800Y0199257D01*
X0014800Y0203186D02*
X0014802Y0203358D01*
X0014808Y0203529D01*
X0014819Y0203701D01*
X0014834Y0203872D01*
X0014853Y0204043D01*
X0014876Y0204213D01*
X0014903Y0204383D01*
X0014935Y0204552D01*
X0014970Y0204720D01*
X0015010Y0204887D01*
X0015054Y0205053D01*
X0015101Y0205218D01*
X0015153Y0205382D01*
X0015209Y0205544D01*
X0015269Y0205705D01*
X0015333Y0205865D01*
X0015401Y0206023D01*
X0015472Y0206179D01*
X0015547Y0206333D01*
X0015627Y0206486D01*
X0015709Y0206636D01*
X0015796Y0206785D01*
X0015886Y0206931D01*
X0015980Y0207075D01*
X0016077Y0207217D01*
X0016178Y0207356D01*
X0016282Y0207493D01*
X0016389Y0207627D01*
X0016500Y0207758D01*
X0016613Y0207887D01*
X0016730Y0208013D01*
X0016850Y0208136D01*
X0016973Y0208256D01*
X0017099Y0208373D01*
X0017228Y0208486D01*
X0017359Y0208597D01*
X0017493Y0208704D01*
X0017630Y0208808D01*
X0017769Y0208909D01*
X0017911Y0209006D01*
X0018055Y0209100D01*
X0018201Y0209190D01*
X0018350Y0209277D01*
X0018500Y0209359D01*
X0018653Y0209439D01*
X0018807Y0209514D01*
X0018963Y0209585D01*
X0019121Y0209653D01*
X0019281Y0209717D01*
X0019442Y0209777D01*
X0019604Y0209833D01*
X0019768Y0209885D01*
X0019933Y0209932D01*
X0020099Y0209976D01*
X0020266Y0210016D01*
X0020434Y0210051D01*
X0020603Y0210083D01*
X0020773Y0210110D01*
X0020943Y0210133D01*
X0021114Y0210152D01*
X0021285Y0210167D01*
X0021457Y0210178D01*
X0021628Y0210184D01*
X0021800Y0210186D01*
X0021972Y0210184D01*
X0022143Y0210178D01*
X0022315Y0210167D01*
X0022486Y0210152D01*
X0022657Y0210133D01*
X0022827Y0210110D01*
X0022997Y0210083D01*
X0023166Y0210051D01*
X0023334Y0210016D01*
X0023501Y0209976D01*
X0023667Y0209932D01*
X0023832Y0209885D01*
X0023996Y0209833D01*
X0024158Y0209777D01*
X0024319Y0209717D01*
X0024479Y0209653D01*
X0024637Y0209585D01*
X0024793Y0209514D01*
X0024947Y0209439D01*
X0025100Y0209359D01*
X0025250Y0209277D01*
X0025399Y0209190D01*
X0025545Y0209100D01*
X0025689Y0209006D01*
X0025831Y0208909D01*
X0025970Y0208808D01*
X0026107Y0208704D01*
X0026241Y0208597D01*
X0026372Y0208486D01*
X0026501Y0208373D01*
X0026627Y0208256D01*
X0026750Y0208136D01*
X0026870Y0208013D01*
X0026987Y0207887D01*
X0027100Y0207758D01*
X0027211Y0207627D01*
X0027318Y0207493D01*
X0027422Y0207356D01*
X0027523Y0207217D01*
X0027620Y0207075D01*
X0027714Y0206931D01*
X0027804Y0206785D01*
X0027891Y0206636D01*
X0027973Y0206486D01*
X0028053Y0206333D01*
X0028128Y0206179D01*
X0028199Y0206023D01*
X0028267Y0205865D01*
X0028331Y0205705D01*
X0028391Y0205544D01*
X0028447Y0205382D01*
X0028499Y0205218D01*
X0028546Y0205053D01*
X0028590Y0204887D01*
X0028630Y0204720D01*
X0028665Y0204552D01*
X0028697Y0204383D01*
X0028724Y0204213D01*
X0028747Y0204043D01*
X0028766Y0203872D01*
X0028781Y0203701D01*
X0028792Y0203529D01*
X0028798Y0203358D01*
X0028800Y0203186D01*
X0028798Y0203014D01*
X0028792Y0202843D01*
X0028781Y0202671D01*
X0028766Y0202500D01*
X0028747Y0202329D01*
X0028724Y0202159D01*
X0028697Y0201989D01*
X0028665Y0201820D01*
X0028630Y0201652D01*
X0028590Y0201485D01*
X0028546Y0201319D01*
X0028499Y0201154D01*
X0028447Y0200990D01*
X0028391Y0200828D01*
X0028331Y0200667D01*
X0028267Y0200507D01*
X0028199Y0200349D01*
X0028128Y0200193D01*
X0028053Y0200039D01*
X0027973Y0199886D01*
X0027891Y0199736D01*
X0027804Y0199587D01*
X0027714Y0199441D01*
X0027620Y0199297D01*
X0027523Y0199155D01*
X0027422Y0199016D01*
X0027318Y0198879D01*
X0027211Y0198745D01*
X0027100Y0198614D01*
X0026987Y0198485D01*
X0026870Y0198359D01*
X0026750Y0198236D01*
X0026627Y0198116D01*
X0026501Y0197999D01*
X0026372Y0197886D01*
X0026241Y0197775D01*
X0026107Y0197668D01*
X0025970Y0197564D01*
X0025831Y0197463D01*
X0025689Y0197366D01*
X0025545Y0197272D01*
X0025399Y0197182D01*
X0025250Y0197095D01*
X0025100Y0197013D01*
X0024947Y0196933D01*
X0024793Y0196858D01*
X0024637Y0196787D01*
X0024479Y0196719D01*
X0024319Y0196655D01*
X0024158Y0196595D01*
X0023996Y0196539D01*
X0023832Y0196487D01*
X0023667Y0196440D01*
X0023501Y0196396D01*
X0023334Y0196356D01*
X0023166Y0196321D01*
X0022997Y0196289D01*
X0022827Y0196262D01*
X0022657Y0196239D01*
X0022486Y0196220D01*
X0022315Y0196205D01*
X0022143Y0196194D01*
X0021972Y0196188D01*
X0021800Y0196186D01*
X0021628Y0196188D01*
X0021457Y0196194D01*
X0021285Y0196205D01*
X0021114Y0196220D01*
X0020943Y0196239D01*
X0020773Y0196262D01*
X0020603Y0196289D01*
X0020434Y0196321D01*
X0020266Y0196356D01*
X0020099Y0196396D01*
X0019933Y0196440D01*
X0019768Y0196487D01*
X0019604Y0196539D01*
X0019442Y0196595D01*
X0019281Y0196655D01*
X0019121Y0196719D01*
X0018963Y0196787D01*
X0018807Y0196858D01*
X0018653Y0196933D01*
X0018500Y0197013D01*
X0018350Y0197095D01*
X0018201Y0197182D01*
X0018055Y0197272D01*
X0017911Y0197366D01*
X0017769Y0197463D01*
X0017630Y0197564D01*
X0017493Y0197668D01*
X0017359Y0197775D01*
X0017228Y0197886D01*
X0017099Y0197999D01*
X0016973Y0198116D01*
X0016850Y0198236D01*
X0016730Y0198359D01*
X0016613Y0198485D01*
X0016500Y0198614D01*
X0016389Y0198745D01*
X0016282Y0198879D01*
X0016178Y0199016D01*
X0016077Y0199155D01*
X0015980Y0199297D01*
X0015886Y0199441D01*
X0015796Y0199587D01*
X0015709Y0199736D01*
X0015627Y0199886D01*
X0015547Y0200039D01*
X0015472Y0200193D01*
X0015401Y0200349D01*
X0015333Y0200507D01*
X0015269Y0200667D01*
X0015209Y0200828D01*
X0015153Y0200990D01*
X0015101Y0201154D01*
X0015054Y0201319D01*
X0015010Y0201485D01*
X0014970Y0201652D01*
X0014935Y0201820D01*
X0014903Y0201989D01*
X0014876Y0202159D01*
X0014853Y0202329D01*
X0014834Y0202500D01*
X0014819Y0202671D01*
X0014808Y0202843D01*
X0014802Y0203014D01*
X0014800Y0203186D01*
X0142698Y0141828D02*
X0142698Y0139545D01*
X0142698Y0141828D02*
X0170942Y0141828D01*
X0170942Y0139545D01*
X0170942Y0126828D02*
X0170942Y0124545D01*
X0142698Y0124545D01*
X0142698Y0126828D01*
X0189800Y0125686D02*
X0189800Y0130686D01*
X0192300Y0133186D01*
X0189800Y0135686D01*
X0189800Y0140686D01*
X0192300Y0143186D01*
X0189800Y0145686D01*
X0189800Y0150686D01*
X0192300Y0153186D01*
X0189800Y0155686D01*
X0189800Y0160686D01*
X0192300Y0163186D01*
X0197300Y0163186D01*
X0199800Y0160686D01*
X0199800Y0155686D01*
X0197300Y0153186D01*
X0199800Y0150686D01*
X0199800Y0145686D01*
X0197300Y0143186D01*
X0199800Y0140686D01*
X0199800Y0135686D01*
X0197300Y0133186D01*
X0199800Y0130686D01*
X0199800Y0125686D01*
X0197300Y0123186D01*
X0199800Y0120686D01*
X0199800Y0115686D01*
X0197300Y0113186D01*
X0199800Y0110686D01*
X0199800Y0105686D01*
X0197300Y0103186D01*
X0199800Y0100686D01*
X0199800Y0095686D01*
X0197300Y0093186D01*
X0199800Y0090686D01*
X0199800Y0085686D01*
X0197300Y0083186D01*
X0192300Y0083186D01*
X0189800Y0085686D01*
X0189800Y0090686D01*
X0192300Y0093186D01*
X0189800Y0095686D01*
X0189800Y0100686D01*
X0192300Y0103186D01*
X0189800Y0105686D01*
X0189800Y0110686D01*
X0192300Y0113186D01*
X0189800Y0115686D01*
X0189800Y0120686D01*
X0192300Y0123186D01*
X0189800Y0125686D01*
X0184005Y0056178D02*
X0180461Y0056178D01*
X0186761Y0046336D02*
X0186761Y0038068D01*
X0163139Y0056178D02*
X0159595Y0056178D01*
X0156839Y0046336D02*
X0156839Y0038068D01*
X0068800Y0034686D02*
X0068800Y0051686D01*
X0060800Y0055186D02*
X0052871Y0055186D01*
X0044800Y0051686D02*
X0044800Y0034686D01*
X0052753Y0031186D02*
X0060800Y0031186D01*
X0049800Y0043186D02*
X0049802Y0043358D01*
X0049808Y0043529D01*
X0049819Y0043701D01*
X0049834Y0043872D01*
X0049853Y0044043D01*
X0049876Y0044213D01*
X0049903Y0044383D01*
X0049935Y0044552D01*
X0049970Y0044720D01*
X0050010Y0044887D01*
X0050054Y0045053D01*
X0050101Y0045218D01*
X0050153Y0045382D01*
X0050209Y0045544D01*
X0050269Y0045705D01*
X0050333Y0045865D01*
X0050401Y0046023D01*
X0050472Y0046179D01*
X0050547Y0046333D01*
X0050627Y0046486D01*
X0050709Y0046636D01*
X0050796Y0046785D01*
X0050886Y0046931D01*
X0050980Y0047075D01*
X0051077Y0047217D01*
X0051178Y0047356D01*
X0051282Y0047493D01*
X0051389Y0047627D01*
X0051500Y0047758D01*
X0051613Y0047887D01*
X0051730Y0048013D01*
X0051850Y0048136D01*
X0051973Y0048256D01*
X0052099Y0048373D01*
X0052228Y0048486D01*
X0052359Y0048597D01*
X0052493Y0048704D01*
X0052630Y0048808D01*
X0052769Y0048909D01*
X0052911Y0049006D01*
X0053055Y0049100D01*
X0053201Y0049190D01*
X0053350Y0049277D01*
X0053500Y0049359D01*
X0053653Y0049439D01*
X0053807Y0049514D01*
X0053963Y0049585D01*
X0054121Y0049653D01*
X0054281Y0049717D01*
X0054442Y0049777D01*
X0054604Y0049833D01*
X0054768Y0049885D01*
X0054933Y0049932D01*
X0055099Y0049976D01*
X0055266Y0050016D01*
X0055434Y0050051D01*
X0055603Y0050083D01*
X0055773Y0050110D01*
X0055943Y0050133D01*
X0056114Y0050152D01*
X0056285Y0050167D01*
X0056457Y0050178D01*
X0056628Y0050184D01*
X0056800Y0050186D01*
X0056972Y0050184D01*
X0057143Y0050178D01*
X0057315Y0050167D01*
X0057486Y0050152D01*
X0057657Y0050133D01*
X0057827Y0050110D01*
X0057997Y0050083D01*
X0058166Y0050051D01*
X0058334Y0050016D01*
X0058501Y0049976D01*
X0058667Y0049932D01*
X0058832Y0049885D01*
X0058996Y0049833D01*
X0059158Y0049777D01*
X0059319Y0049717D01*
X0059479Y0049653D01*
X0059637Y0049585D01*
X0059793Y0049514D01*
X0059947Y0049439D01*
X0060100Y0049359D01*
X0060250Y0049277D01*
X0060399Y0049190D01*
X0060545Y0049100D01*
X0060689Y0049006D01*
X0060831Y0048909D01*
X0060970Y0048808D01*
X0061107Y0048704D01*
X0061241Y0048597D01*
X0061372Y0048486D01*
X0061501Y0048373D01*
X0061627Y0048256D01*
X0061750Y0048136D01*
X0061870Y0048013D01*
X0061987Y0047887D01*
X0062100Y0047758D01*
X0062211Y0047627D01*
X0062318Y0047493D01*
X0062422Y0047356D01*
X0062523Y0047217D01*
X0062620Y0047075D01*
X0062714Y0046931D01*
X0062804Y0046785D01*
X0062891Y0046636D01*
X0062973Y0046486D01*
X0063053Y0046333D01*
X0063128Y0046179D01*
X0063199Y0046023D01*
X0063267Y0045865D01*
X0063331Y0045705D01*
X0063391Y0045544D01*
X0063447Y0045382D01*
X0063499Y0045218D01*
X0063546Y0045053D01*
X0063590Y0044887D01*
X0063630Y0044720D01*
X0063665Y0044552D01*
X0063697Y0044383D01*
X0063724Y0044213D01*
X0063747Y0044043D01*
X0063766Y0043872D01*
X0063781Y0043701D01*
X0063792Y0043529D01*
X0063798Y0043358D01*
X0063800Y0043186D01*
X0063798Y0043014D01*
X0063792Y0042843D01*
X0063781Y0042671D01*
X0063766Y0042500D01*
X0063747Y0042329D01*
X0063724Y0042159D01*
X0063697Y0041989D01*
X0063665Y0041820D01*
X0063630Y0041652D01*
X0063590Y0041485D01*
X0063546Y0041319D01*
X0063499Y0041154D01*
X0063447Y0040990D01*
X0063391Y0040828D01*
X0063331Y0040667D01*
X0063267Y0040507D01*
X0063199Y0040349D01*
X0063128Y0040193D01*
X0063053Y0040039D01*
X0062973Y0039886D01*
X0062891Y0039736D01*
X0062804Y0039587D01*
X0062714Y0039441D01*
X0062620Y0039297D01*
X0062523Y0039155D01*
X0062422Y0039016D01*
X0062318Y0038879D01*
X0062211Y0038745D01*
X0062100Y0038614D01*
X0061987Y0038485D01*
X0061870Y0038359D01*
X0061750Y0038236D01*
X0061627Y0038116D01*
X0061501Y0037999D01*
X0061372Y0037886D01*
X0061241Y0037775D01*
X0061107Y0037668D01*
X0060970Y0037564D01*
X0060831Y0037463D01*
X0060689Y0037366D01*
X0060545Y0037272D01*
X0060399Y0037182D01*
X0060250Y0037095D01*
X0060100Y0037013D01*
X0059947Y0036933D01*
X0059793Y0036858D01*
X0059637Y0036787D01*
X0059479Y0036719D01*
X0059319Y0036655D01*
X0059158Y0036595D01*
X0058996Y0036539D01*
X0058832Y0036487D01*
X0058667Y0036440D01*
X0058501Y0036396D01*
X0058334Y0036356D01*
X0058166Y0036321D01*
X0057997Y0036289D01*
X0057827Y0036262D01*
X0057657Y0036239D01*
X0057486Y0036220D01*
X0057315Y0036205D01*
X0057143Y0036194D01*
X0056972Y0036188D01*
X0056800Y0036186D01*
X0056628Y0036188D01*
X0056457Y0036194D01*
X0056285Y0036205D01*
X0056114Y0036220D01*
X0055943Y0036239D01*
X0055773Y0036262D01*
X0055603Y0036289D01*
X0055434Y0036321D01*
X0055266Y0036356D01*
X0055099Y0036396D01*
X0054933Y0036440D01*
X0054768Y0036487D01*
X0054604Y0036539D01*
X0054442Y0036595D01*
X0054281Y0036655D01*
X0054121Y0036719D01*
X0053963Y0036787D01*
X0053807Y0036858D01*
X0053653Y0036933D01*
X0053500Y0037013D01*
X0053350Y0037095D01*
X0053201Y0037182D01*
X0053055Y0037272D01*
X0052911Y0037366D01*
X0052769Y0037463D01*
X0052630Y0037564D01*
X0052493Y0037668D01*
X0052359Y0037775D01*
X0052228Y0037886D01*
X0052099Y0037999D01*
X0051973Y0038116D01*
X0051850Y0038236D01*
X0051730Y0038359D01*
X0051613Y0038485D01*
X0051500Y0038614D01*
X0051389Y0038745D01*
X0051282Y0038879D01*
X0051178Y0039016D01*
X0051077Y0039155D01*
X0050980Y0039297D01*
X0050886Y0039441D01*
X0050796Y0039587D01*
X0050709Y0039736D01*
X0050627Y0039886D01*
X0050547Y0040039D01*
X0050472Y0040193D01*
X0050401Y0040349D01*
X0050333Y0040507D01*
X0050269Y0040667D01*
X0050209Y0040828D01*
X0050153Y0040990D01*
X0050101Y0041154D01*
X0050054Y0041319D01*
X0050010Y0041485D01*
X0049970Y0041652D01*
X0049935Y0041820D01*
X0049903Y0041989D01*
X0049876Y0042159D01*
X0049853Y0042329D01*
X0049834Y0042500D01*
X0049819Y0042671D01*
X0049808Y0042843D01*
X0049802Y0043014D01*
X0049800Y0043186D01*
X0149300Y0208186D02*
X0146800Y0210686D01*
X0146800Y0215686D01*
X0149300Y0218186D01*
X0154300Y0218186D01*
X0156800Y0215686D01*
X0159300Y0218186D01*
X0164300Y0218186D01*
X0166800Y0215686D01*
X0169300Y0218186D01*
X0174300Y0218186D01*
X0176800Y0215686D01*
X0179300Y0218186D01*
X0184300Y0218186D01*
X0186800Y0215686D01*
X0189300Y0218186D01*
X0194300Y0218186D01*
X0196800Y0215686D01*
X0196800Y0210686D01*
X0194300Y0208186D01*
X0189300Y0208186D01*
X0186800Y0210686D01*
X0184300Y0208186D01*
X0179300Y0208186D01*
X0176800Y0210686D01*
X0174300Y0208186D01*
X0169300Y0208186D01*
X0166800Y0210686D01*
X0164300Y0208186D01*
X0159300Y0208186D01*
X0156800Y0210686D01*
X0154300Y0208186D01*
X0149300Y0208186D01*
D15*
X0149871Y0147990D02*
X0149104Y0147223D01*
X0149871Y0147990D02*
X0151406Y0147990D01*
X0152173Y0147223D01*
X0152173Y0146456D01*
X0149104Y0143386D01*
X0152173Y0143386D01*
X0147569Y0144154D02*
X0146802Y0143386D01*
X0145267Y0143386D01*
X0144500Y0144154D01*
X0144500Y0147223D01*
X0145267Y0147990D01*
X0146802Y0147990D01*
X0147569Y0147223D01*
X0146035Y0122990D02*
X0146035Y0118386D01*
X0147569Y0118386D02*
X0144500Y0118386D01*
X0144500Y0121456D02*
X0146035Y0122990D01*
X0149104Y0122223D02*
X0149871Y0122990D01*
X0151406Y0122990D01*
X0152173Y0122223D01*
X0149104Y0119154D01*
X0149871Y0118386D01*
X0151406Y0118386D01*
X0152173Y0119154D01*
X0152173Y0122223D01*
X0153708Y0121456D02*
X0153708Y0119154D01*
X0154475Y0118386D01*
X0156777Y0118386D01*
X0156777Y0121456D01*
X0158312Y0120688D02*
X0159846Y0120688D01*
X0158312Y0118386D02*
X0158312Y0122990D01*
X0161381Y0122990D01*
X0149104Y0122223D02*
X0149104Y0119154D01*
X0118560Y0047089D02*
X0119144Y0046505D01*
X0116809Y0044170D01*
X0117393Y0043586D01*
X0118560Y0043586D01*
X0119144Y0044170D01*
X0119144Y0046505D01*
X0118560Y0047089D02*
X0117393Y0047089D01*
X0116809Y0046505D01*
X0116809Y0044170D01*
X0115553Y0044170D02*
X0115553Y0044754D01*
X0114969Y0045338D01*
X0114386Y0045338D01*
X0114969Y0045338D02*
X0115553Y0045922D01*
X0115553Y0046505D01*
X0114969Y0047089D01*
X0113802Y0047089D01*
X0113218Y0046505D01*
X0111962Y0046505D02*
X0111962Y0045922D01*
X0111378Y0045338D01*
X0111962Y0044754D01*
X0111962Y0044170D01*
X0111378Y0043586D01*
X0110211Y0043586D01*
X0109627Y0044170D01*
X0110794Y0045338D02*
X0111378Y0045338D01*
X0111962Y0046505D02*
X0111378Y0047089D01*
X0110211Y0047089D01*
X0109627Y0046505D01*
X0113218Y0044170D02*
X0113802Y0043586D01*
X0114969Y0043586D01*
X0115553Y0044170D01*
X0114469Y0033389D02*
X0115053Y0032805D01*
X0115053Y0031638D01*
X0114469Y0031054D01*
X0112718Y0031054D01*
X0113886Y0031054D02*
X0115053Y0029886D01*
X0116309Y0030470D02*
X0116893Y0029886D01*
X0118060Y0029886D01*
X0118644Y0030470D01*
X0118644Y0031054D01*
X0118060Y0031638D01*
X0117477Y0031638D01*
X0118060Y0031638D02*
X0118644Y0032222D01*
X0118644Y0032805D01*
X0118060Y0033389D01*
X0116893Y0033389D01*
X0116309Y0032805D01*
X0114469Y0033389D02*
X0112718Y0033389D01*
X0112718Y0029886D01*
X0085100Y0039104D02*
X0081597Y0039104D01*
X0081597Y0040856D01*
X0082181Y0041440D01*
X0083349Y0041440D01*
X0083932Y0040856D01*
X0083932Y0039104D01*
X0083932Y0040272D02*
X0085100Y0041440D01*
X0085100Y0042695D02*
X0082765Y0045031D01*
X0082181Y0045031D01*
X0081597Y0044447D01*
X0081597Y0043279D01*
X0082181Y0042695D01*
X0085100Y0042695D02*
X0085100Y0045031D01*
X0071400Y0045545D02*
X0070232Y0043794D01*
X0069065Y0045545D01*
X0067897Y0043794D02*
X0071400Y0043794D01*
X0070816Y0042538D02*
X0071400Y0041954D01*
X0071400Y0040787D01*
X0070816Y0040203D01*
X0068481Y0042538D01*
X0070816Y0042538D01*
X0068481Y0042538D02*
X0067897Y0041954D01*
X0067897Y0040787D01*
X0068481Y0040203D01*
X0070816Y0040203D01*
X0071400Y0038947D02*
X0071400Y0036612D01*
X0071400Y0037779D02*
X0067897Y0037779D01*
X0069065Y0036612D01*
X0035700Y0050570D02*
X0035116Y0049986D01*
X0035700Y0050570D02*
X0035700Y0051738D01*
X0035116Y0052322D01*
X0034532Y0052322D01*
X0033949Y0051738D01*
X0033949Y0051154D01*
X0033949Y0051738D02*
X0033365Y0052322D01*
X0032781Y0052322D01*
X0032197Y0051738D01*
X0032197Y0050570D01*
X0032781Y0049986D01*
X0032781Y0053577D02*
X0032197Y0054161D01*
X0032197Y0055329D01*
X0032781Y0055913D01*
X0033365Y0055913D01*
X0033949Y0055329D01*
X0034532Y0055913D01*
X0035116Y0055913D01*
X0035700Y0055329D01*
X0035700Y0054161D01*
X0035116Y0053577D01*
X0033949Y0054745D02*
X0033949Y0055329D01*
X0035116Y0057168D02*
X0032781Y0057168D01*
X0032197Y0057752D01*
X0032197Y0058920D01*
X0032781Y0059504D01*
X0035116Y0057168D01*
X0035700Y0057752D01*
X0035700Y0058920D01*
X0035116Y0059504D01*
X0032781Y0059504D01*
X0022000Y0055829D02*
X0018497Y0055829D01*
X0020249Y0054077D01*
X0020249Y0056413D01*
X0020249Y0052822D02*
X0020832Y0052238D01*
X0020832Y0050486D01*
X0020832Y0051654D02*
X0022000Y0052822D01*
X0020249Y0052822D02*
X0019081Y0052822D01*
X0018497Y0052238D01*
X0018497Y0050486D01*
X0022000Y0050486D01*
X0063600Y0194286D02*
X0065935Y0194286D01*
X0064768Y0194286D02*
X0064768Y0197789D01*
X0063600Y0196622D01*
X0067191Y0197205D02*
X0067775Y0197789D01*
X0068943Y0197789D01*
X0069526Y0197205D01*
X0067191Y0194870D01*
X0067775Y0194286D01*
X0068943Y0194286D01*
X0069526Y0194870D01*
X0069526Y0197205D01*
X0070782Y0197789D02*
X0070782Y0194286D01*
X0070782Y0195454D02*
X0072534Y0196622D01*
X0070782Y0195454D02*
X0072534Y0194286D01*
X0067191Y0194870D02*
X0067191Y0197205D01*
X0067691Y0207986D02*
X0070026Y0207986D01*
X0068859Y0207986D02*
X0068859Y0211489D01*
X0067691Y0210322D01*
X0066435Y0210905D02*
X0066435Y0209738D01*
X0065851Y0209154D01*
X0064100Y0209154D01*
X0065268Y0209154D02*
X0066435Y0207986D01*
X0064100Y0207986D02*
X0064100Y0211489D01*
X0065851Y0211489D01*
X0066435Y0210905D01*
M02*
